<?xml version="1.0" encoding="UTF-8" standalone="no"?>
<!-- Created with Inkscape (http://www.inkscape.org/) -->

<svg
   width="210mm"
   height="297mm"
   viewBox="0 0 210 297"
   version="1.1"
   id="svg545"
   inkscape:version="1.1.1 (c3084ef, 2021-09-22)"
   sodipodi:docname="Hylomys_phylomap.svg"
   xmlns:inkscape="http://www.inkscape.org/namespaces/inkscape"
   xmlns:sodipodi="http://sodipodi.sourceforge.net/DTD/sodipodi-0.dtd"
   xmlns="http://www.w3.org/2000/svg"
   xmlns:svg="http://www.w3.org/2000/svg">
  <sodipodi:namedview
     id="namedview547"
     pagecolor="#ffffff"
     bordercolor="#666666"
     borderopacity="1.0"
     inkscape:pageshadow="2"
     inkscape:pageopacity="0.0"
     inkscape:pagecheckerboard="0"
     inkscape:document-units="mm"
     showgrid="false"
     inkscape:zoom="1.9471882"
     inkscape:cx="266.02462"
     inkscape:cy="213.89817"
     inkscape:window-width="1920"
     inkscape:window-height="1027"
     inkscape:window-x="284"
     inkscape:window-y="25"
     inkscape:window-maximized="0"
     inkscape:current-layer="layer1" />
  <defs
     id="defs542" />
  <g
     inkscape:label="Layer 1"
     inkscape:groupmode="layer"
     id="layer1">
    <path
       inkscape:connector-curvature="0"
       style="font-style:normal;font-weight:normal;font-size:12px;font-family:Dialog;color-interpolation:auto;fill:#d55e00;fill-opacity:1;stroke:#ffffff;stroke-width:0.568494;stroke-linecap:square;stroke-linejoin:miter;stroke-miterlimit:10;stroke-dasharray:none;stroke-dashoffset:0;stroke-opacity:1;color-rendering:auto;image-rendering:auto;shape-rendering:auto;text-rendering:auto"
       d="m 53.340654,38.748363 -2.36893,-0.09437 -2.17904,0.28425 -1.51617,0.378616 -0.5685,1.895364 0.37918,1.515607 0.18932,1.611109 -0.18932,1.799868 0.75781,1.705481 1.04205,-0.378617 -0.28425,1.231361 0.18931,0.663435 1.137,-0.378617 0.94768,-0.474128 2.65316,-1.136989 2.17905,0.189307 -0.47356,-1.989162 3.03179,-1.231939 0.56849,-1.350177 -0.37918,-2.439972 -0.0949,-2.084107 -0.94769,0.47356 -1.23192,-0.28425 -1.3263,1.042053 z"
       id="path62" />
    <path
       inkscape:connector-curvature="0"
       style="font-style:normal;font-weight:normal;font-size:12px;font-family:Dialog;color-interpolation:auto;fill:#d55e00;fill-opacity:1;stroke:#ffffff;stroke-width:0.568494;stroke-linecap:square;stroke-linejoin:miter;stroke-miterlimit:10;stroke-dasharray:none;stroke-dashoffset:0;stroke-opacity:1;color-rendering:auto;image-rendering:auto;shape-rendering:auto;text-rendering:auto"
       d="m 39.933834,58.551321 0.78168,0.0711 0.63956,-0.78169 0.71061,0.71062 0.92381,0.14213 -0.14213,1.27911 1.63443,-0.49743 0.49743,-0.0711 -1.63442,-1.77654 -0.9238,0.14213 -0.78169,-0.63956 -0.85274,-0.63956 -0.63956,-0.56849 0.63956,-0.42638 -0.35531,-1.70548 -0.63956,0.28425 -0.35531,-1.84761 -0.99486,0.14212 -0.85275,-1.279114 0.42638,-1.634424 0.28424,-0.852742 0.5685,-0.639551 0.14212,-1.279118 0.5685,-0.923803 0.14212,-0.497433 0.42637,-0.28426 V 43.34408 l -0.28424,-0.99487 0.49743,-1.208053 1.4923,0.284252 0.49743,-0.355306 -0.42637,1.70548 0.21318,1.136986 1.42124,-0.213183 0.99487,0.142121 1.06592,0.923806 -0.14212,0.781685 1.06593,-0.639559 0.56849,0.710624 v -2.416109 l -0.56849,-1.918671 0.7345,-1.966423 2.46328,-0.52074 1.63443,-0.07106 1.96586,0.02334 0.52131,-0.80499 -0.23707,-2.037487 -1.61055,-1.657732 0.0949,-1.84761 -0.94768,-1.70548 -1.3263,-0.663436 -0.94768,-0.828867 -0.94768,-0.497432 -0.37919,1.042052 -0.94768,0.09494 -1.23192,-0.568498 -2.67648,1.492299 0.5685,-2.842471 -0.14213,-1.634433 -0.28424,-0.781679 -0.99487,-0.639554 -0.35531,-1.06593 -1.23193,0.07106 v -0.758375 l -1.39736,0.545189 -1.27911,1.350174 -1.98974,0.07106 -0.71062,1.492303 -1.06593,0.994865 1.06593,1.279117 0.35531,1.563359 0.28425,1.06593 1.35018,0.639554 0.0711,2.202922 0.21319,1.847603 -1.20806,0.781683 0.71062,1.634426 0.92381,0.568489 0.56849,0.923806 0.28425,1.350177 -0.21319,1.208053 0.28425,0.78168 0.5685,0.568491 -0.21319,0.78168 -0.0711,0.497443 -0.49743,1.065924 -0.71062,0.994865 -1.06593,1.563363 -0.28425,1.350177 -0.28425,1.492301 -0.56849,0.9238 0.21318,2.20292 0.63956,-0.63956 0.78168,0.92381 0.5685,0.63955 -0.0711,0.78169 0.78169,-0.0711 0.78168,0.63956 0.3553,0.78168 0.49801,0.63956 z"
       id="path64" />
    <path
       inkscape:connector-curvature="0"
       style="font-style:normal;font-weight:normal;font-size:12px;font-family:Dialog;color-interpolation:auto;fill:#f0e442;fill-opacity:0.97254902;stroke:#ffffff;stroke-width:0.568494;stroke-linecap:square;stroke-linejoin:miter;stroke-miterlimit:10;stroke-dasharray:none;stroke-dashoffset:0;stroke-opacity:1;color-rendering:auto;image-rendering:auto;shape-rendering:auto;text-rendering:auto"
       d="m 49.953554,70.418661 -0.5685,0.71062 h -1.49229 l -1.63443,-1.20806 -1.42123,-0.78167 -1.70549,-1.42124 0.14212,-0.63955 -1.56336,-1.91868 -0.49743,-1.98973 -0.21318,-1.56336 -0.35532,-1.4923 -0.99486,-1.56337 1.06593,0.0711 0.63956,-0.5685 0.71061,0.49743 0.63956,0.35531 -0.0711,0.99487 2.34504,-0.49744 1.77654,1.20806 1.27912,1.56336 0.21319,1.84761 c -0.65954,2.02876 -0.39938,1.98821 -0.28425,2.27399 v 1.35017 l 1.42123,1.06593 0.42637,0.99486 z"
       id="path66"
       sodipodi:nodetypes="cccccccccccccccccccccccccc" />
    <path
       inkscape:connector-curvature="0"
       style="font-style:normal;font-weight:normal;font-size:12px;font-family:Dialog;color-interpolation:auto;fill:#e69f00;fill-opacity:1;stroke:#ffffff;stroke-width:0.568494;stroke-linecap:square;stroke-linejoin:miter;stroke-miterlimit:10;stroke-dasharray:none;stroke-dashoffset:0;stroke-opacity:1;color-rendering:auto;image-rendering:auto;shape-rendering:auto;text-rendering:auto"
       d="m 63.810624,69.921221 0.9238,1.137 0.85274,1.13699 1.98974,-0.0711 1.8476,-0.071 1.776552,-1.27912 0.5685,-0.28425 1.98974,0.63956 1.20805,-0.42637 1.70548,-1.56336 0.85275,-1.63442 1.13698,-1.63443 0.42638,-1.70548 1.13699,-0.49744 1.70548,0.42637 1.77655,0.35532 1.13699,-0.21319 1.06593,-0.35531 -0.99488,-0.78169 v -0.35531 h 1.63444 l 0.78168,-0.56849 -0.49743,-1.06593 -1.77655,-0.71062 -1.06593,0.14213 h -0.49744 v -1.42124 l -1.13699,-0.78168 -0.42637,-0.78169 -0.42637,0.92381 -0.49743,-0.85274 -0.5685,1.77654 -0.14212,1.06593 -0.63956,0.21319 -1.20805,0.35531 -0.85275,0.49744 -0.071,0.85273 -0.63956,0.42638 -0.78168,-0.28425 -0.35531,0.99487 h -1.27911 l -0.21319,1.56337 -1.42124,1.13698 -1.13699,1.13699 -2.842482,0.21318 -1.42124,0.49744 0.28425,1.20806 0.85275,0.071 -1.42124,0.99487 v 0.85274 l -0.63956,-0.21319 -1.06593,-0.56849 -0.63956,-0.0711 z"
       id="path68" />
    <path
       inkscape:connector-curvature="0"
       style="font-style:normal;font-weight:normal;font-size:12px;font-family:Dialog;color-interpolation:auto;fill:#f0e442;fill-opacity:1;stroke:#ffffff;stroke-width:0.568494;stroke-linecap:square;stroke-linejoin:miter;stroke-miterlimit:10;stroke-dasharray:none;stroke-dashoffset:0;stroke-opacity:1;color-rendering:auto;image-rendering:auto;shape-rendering:auto;text-rendering:auto"
       d="m 33.964624,61.962301 -2.20292,-0.0711 -1.8476,-0.14212 -0.5685,-0.63956 -1.27911,-0.35531 0.0711,1.84761 1.27911,1.7055 1.63443,0.99486 0.9238,0.9238 0.92381,0.49744 0.99486,1.63442 0.35532,1.42124 1.91867,0.49743 0.85274,1.70549 0.9238,1.8476 0.14213,0.78168 1.06593,0.35531 1.13699,1.77655 1.06593,1.91867 0.49743,1.84761 1.63442,0.99487 1.13699,1.91867 1.63442,1.421238 1.42124,1.42123 1.70548,0.63956 0.85275,1.20806 0.56849,1.20805 1.06593,-0.63956 1.4923,-0.0711 0.85275,0.78168 0.0711,-1.91868 0.0711,-2.70035 -0.0711,-1.136988 0.63956,-0.9238 -0.35531,-1.13698 -1.77656,-0.71063 -0.99486,-0.35531 -0.49744,-1.42123 -0.3553,-1.84762 -1.98974,-0.0711 -0.71061,-0.42637 0.42637,-0.63956 0.49743,-0.71062 0.21318,-0.92381 -1.06592,-0.99486 -1.4923,-0.14212 -0.42637,-1.35017 -1.06593,-0.71062 -1.06593,-1.137 -0.9238,-0.28425 -0.63956,0.28425 -1.06593,-0.71061 -1.20805,-0.63956 -0.71062,-0.92381 -0.42637,-0.63955 -1.42123,-0.9238 -1.06593,-0.28426 -0.5685,-0.78167 -0.9238,-0.35531 0.0711,-0.78169 -0.5685,-0.85274 -0.42637,-0.42637 z"
       id="path80" />
    <path
       inkscape:connector-curvature="0"
       style="font-style:normal;font-weight:normal;font-size:12px;font-family:Dialog;color-interpolation:auto;fill:#e69f00;fill-opacity:1;stroke:#ffffff;stroke-width:0.568494;stroke-linecap:square;stroke-linejoin:miter;stroke-miterlimit:10;stroke-dasharray:none;stroke-dashoffset:0;stroke-opacity:1;color-rendering:auto;image-rendering:auto;shape-rendering:auto;text-rendering:auto"
       d="m 63.810624,69.921221 -1.27911,0.37919 -0.66344,1.42123 v 1.32632 l 0.28425,1.51616 1.13699,1.137 -0.18931,1.5156 1.42124,0.18988 0.37919,1.70549 -0.28425,1.13699 0.47355,1.79986 2.08467,-0.0944 1.51618,-0.18988 0.47356,1.23193 0.0949,0.66343 2.273992,-0.75837 0.66343,-0.66286 1.42124,1.13698 1.61055,-0.18988 0.66343,0.947688 -0.18931,1.42124 2.74754,-1.70549 2.08467,-1.042048 -0.28425,-1.42124 0.66343,-0.85274 -0.7578,-2.08467 1.13699,-0.85275 1.23193,-0.37919 0.7578,-1.13698 -0.0949,-0.94712 0.75781,-2.27398 2.74754,0.0944 -2.46329,-2.65259 -1.04206,-0.75837 0.94769,-0.0944 -0.37919,-1.89537 -0.75781,-1.42124 0.095,-1.13699 0.1893,-0.5685 -3.05566,-0.7578 -1.13699,0.49744 -0.35531,1.20804 -0.47355,0.94769 -0.47356,1.04205 -0.66343,0.94768 -0.66343,0.85274 -0.66344,0.85275 -0.82887,0.68674 -0.78168,0.45025 -1.13699,-0.28425 -1.51617,-0.28425 -1.042062,0.66287 -1.06593,0.80556 -1.87148,0.33143 h -1.42124 -0.75781 l -0.63955,-1.3263 -0.49743,-0.75781 z"
       id="path86" />
    <path
       sodipodi:nodetypes="ccccccccccccsccccccccccccccccccccccccc"
       inkscape:connector-curvature="0"
       style="font-style:normal;font-weight:normal;font-size:12px;font-family:Dialog;color-interpolation:auto;fill:#cc79a7;fill-opacity:0.96862745;stroke:#ffffff;stroke-width:0.568494;stroke-linecap:square;stroke-linejoin:miter;stroke-miterlimit:10;stroke-dasharray:none;stroke-dashoffset:0;stroke-opacity:1;color-rendering:auto;image-rendering:auto;shape-rendering:auto;text-rendering:auto"
       d="m 54.193394,89.913499 -0.0949,0.75781 -1.42124,1.04205 1.3263,0.37918 1.04205,0.0949 0.18931,1.13699 1.70548,-0.0949 1.80043,0.37919 1.51618,0.85275 1.51617,-0.85275 2.84248,0.5685 0.66343,1.04204 c 0,0 0.47356,0.85275 0.7578,0.85275 0.28426,0 2.55824,-0.0949 2.55824,-0.0949 l 1.70548,-0.56849 2.463302,0.66343 0.85273,-0.28425 1.42125,0.66344 c 1.13283,0.006 0.29909,-0.68722 -0.0944,-1.32687 10.86954,0.95514 2.62165,3.11304 0.28398,-1.61091 l -1.13699,0.0949 -1.42124,0.28425 -0.75781,-0.5685 -0.66343,-0.85274 -0.18931,-0.66343 h -1.989732 l -1.98973,-1.04205 -0.85275,0.37862 -0.5685,1.23192 -1.51617,-0.47355 -1.51618,-0.47413 -1.42123,0.37919 -1.04205,-1.42124 -1.8948,-0.18931 -1.42124,-0.75837 -1.42123,0.56849 -1.23193,-0.0944 z"
       id="path88" />
    <path
       id="path7550"
       d="m 39.933834,58.551321 0.78168,0.0711 0.63956,-0.78169 0.71061,0.71062 0.92381,0.14213 -0.14213,1.27911 1.63443,-0.49743 0.49743,-0.0711 -1.63442,-1.77654 -0.9238,0.14213 -0.78169,-0.63956 -0.85274,-0.63956 -0.63956,-0.56849 0.63956,-0.42638 -0.35531,-1.70548 -0.63956,0.28425 -0.35531,-1.84761 -0.99486,0.14212 -0.85275,-1.279114 0.42638,-1.634424 0.28424,-0.852742 0.5685,-0.639551 0.14212,-1.279118 c 9.40189,-9.911794 -4.51643,5.101639 -0.71118,-0.355306 l -0.71062,0.994865 -1.06593,1.563365 -0.28425,1.350172 -0.28425,1.492303 -0.56849,0.9238 0.21318,2.20292 0.63956,-0.63956 0.78168,0.92381 0.5685,0.63955 -0.0711,0.78169 0.78169,-0.0711 0.78168,0.63956 0.3553,0.78168 0.49801,0.63956 z"
       style="font-style:normal;font-weight:normal;font-size:12px;font-family:Dialog;color-interpolation:auto;fill:#d55e00;fill-opacity:0.97254902;stroke:#ffffff;stroke-width:0.568494;stroke-linecap:square;stroke-linejoin:miter;stroke-miterlimit:10;stroke-dasharray:none;stroke-dashoffset:0;stroke-opacity:1;color-rendering:auto;image-rendering:auto;shape-rendering:auto;text-rendering:auto"
       inkscape:connector-curvature="0"
       sodipodi:nodetypes="ccccccccccccccccccccccccccccccccccccccc" />
    <path
       id="path7552"
       d="m 63.810624,69.921221 0.9238,1.137 0.85274,1.13699 1.98974,-0.0711 1.8476,-0.071 1.776552,-1.27912 0.5685,-0.28425 1.98974,0.63956 1.20805,-0.42637 1.70548,-1.56336 0.85275,-1.63442 1.13698,-1.63443 0.42638,-1.70548 c 0.12508,-0.28342 -0.82158,0.1202 -1.49231,-2.62929 l -0.071,0.85273 c -0.57165,0.49417 -0.75672,0.38377 -1.42124,0.14213 l -0.35531,0.99487 h -1.27911 l -0.21319,1.56337 -1.42124,1.13698 -1.13699,1.13699 -2.842482,0.21318 -1.42124,0.49744 0.28425,1.20806 0.85275,0.071 -1.42124,0.99487 v 0.85274 l -0.63956,-0.21319 -1.06593,-0.56849 -0.63956,-0.0711 z"
       style="font-style:normal;font-weight:normal;font-size:12px;font-family:Dialog;color-interpolation:auto;fill:#e69f00;fill-opacity:1;stroke:#ffffff;stroke-width:0.568494;stroke-linecap:square;stroke-linejoin:miter;stroke-miterlimit:10;stroke-dasharray:none;stroke-dashoffset:0;stroke-opacity:1;color-rendering:auto;image-rendering:auto;shape-rendering:auto;text-rendering:auto"
       inkscape:connector-curvature="0"
       sodipodi:nodetypes="ccccccccccccccccccccccccccccccc" />
    <ellipse
       style="fill:#999999;fill-opacity:1;stroke:none;stroke-width:0.410288;stroke-opacity:0.482353"
       id="path2767-9"
       cx="65.062187"
       cy="30.612854"
       rx="1.6714919"
       ry="1.4373982"
       transform="matrix(0.78793276,0.61576129,-0.59469559,0.80395096,0,0)" />
    <ellipse
       style="fill:#0072b2;fill-opacity:1;stroke:none;stroke-width:0.333723;stroke-opacity:0.482353"
       id="path2767-9-3"
       cx="83.181831"
       cy="35.667717"
       rx="1.3601735"
       ry="1.1686404"
       transform="matrix(0.78892569,0.61448861,-0.59597479,0.80300314,0,0)" />
    <path
       sodipodi:type="star"
       style="fill:#d55e00;fill-opacity:1;stroke:none;stroke-opacity:0.482353"
       id="path3376"
       inkscape:flatsided="true"
       sodipodi:sides="5"
       sodipodi:cx="150.93103"
       sodipodi:cy="221.29633"
       sodipodi:r1="5.5455747"
       sodipodi:r2="4.486464"
       sodipodi:arg1="0.29655614"
       sodipodi:arg2="0.92487467"
       inkscape:rounded="0"
       inkscape:randomized="0"
       d="m 156.23453,222.9169 -5.20589,3.92414 -5.34078,-3.73847 1.9051,-6.23464 6.5182,-0.11475 z"
       transform="matrix(0.158434,0.0956362,-0.09757567,0.15739094,39.156054,10.170725)"
       inkscape:transform-center-x="0.02990071"
       inkscape:transform-center-y="-0.067104919" />
    <path
       style="fill:#d55e00;stroke:none;stroke-width:0.264583px;stroke-linecap:butt;stroke-linejoin:miter;stroke-opacity:1;fill-opacity:1"
       d="m 40.193706,58.872754 0.39007,0.614151 0.235145,-0.575421 z"
       id="path4996" />
    <path
       style="fill:#d55e00;stroke:none;stroke-width:0.264583px;stroke-linecap:butt;stroke-linejoin:miter;stroke-opacity:1;fill-opacity:1"
       d="m 42.404096,59.09407 -0.07746,1.095513 -1.330661,0.204716 -0.04602,-0.07704 z"
       id="path5795" />
    <ellipse
       style="fill:#000000;fill-opacity:1;stroke:none;stroke-width:1.3278;stroke-opacity:0.482353"
       id="path2767-9-1"
       cx="-11.223286"
       cy="93.270851"
       rx="4.7072811"
       ry="5.3455682"
       transform="matrix(0.70064256,0.71351244,0.50563825,0.86274559,0,0)" />
    <text
       xml:space="preserve"
       style="font-style:normal;font-variant:normal;font-weight:normal;font-stretch:normal;font-size:2.9986px;line-height:1.25;font-family:Arial-ItalicMT;-inkscape-font-specification:Arial-ItalicMT;fill:#ffffff;stroke-width:0.264583"
       x="38.42458"
       y="73.527649"
       id="text13492-3"><tspan
         sodipodi:role="line"
         id="tspan13490-3"
         style="font-style:normal;font-variant:normal;font-weight:normal;font-stretch:normal;font-family:Arial-ItalicMT;-inkscape-font-specification:Arial-ItalicMT;fill:#ffffff;stroke-width:0.264583"
         x="38.42458"
         y="73.527649">?</tspan></text>
    <ellipse
       style="fill:#000000;fill-opacity:1;stroke:none;stroke-width:0.917994;stroke-opacity:0.482353"
       id="path2767-9-1-8"
       cx="-59.012337"
       cy="153.65862"
       rx="3.3821812"
       ry="3.5561738"
       transform="matrix(0.80157754,0.59789083,0.62477915,0.78080152,0,0)" />
    <path
       style="fill:none;stroke:#000000;stroke-width:0.264583px;stroke-linecap:butt;stroke-linejoin:miter;stroke-opacity:1"
       d="m 62.008129,46.036339 -0.06711,0.289906 -0.348964,0.198641 z"
       id="path8928" />
    <text
       xml:space="preserve"
       style="font-style:normal;font-variant:normal;font-weight:normal;font-stretch:normal;font-size:2.9986px;line-height:1.25;font-family:Arial-ItalicMT;-inkscape-font-specification:Arial-ItalicMT;fill:#ffffff;stroke-width:0.264583"
       x="47.563736"
       y="85.387634"
       id="text13492-3-8"><tspan
         sodipodi:role="line"
         id="tspan13490-3-5"
         style="font-style:normal;font-variant:normal;font-weight:normal;font-stretch:normal;font-family:Arial-ItalicMT;-inkscape-font-specification:Arial-ItalicMT;fill:#ffffff;stroke-width:0.264583"
         x="47.563736"
         y="85.387634">?</tspan></text>
    <path
       d="m 42.769127,22.987346 -0.127496,0.221313 -0.336783,0.228532 -0.238154,0.115469 -0.139525,0.0024 -0.117875,0.137119 -0.09622,0.269427 -0.101038,0.156363 -0.103439,0.04811 -0.06736,0.101038 -0.02887,0.156364 0.05774,0.0842 0.151553,0.01203 0.01203,0.0433 -0.127497,0.07698 -0.158769,0.02647 -0.190042,-0.02165 -0.178014,0.06014 -0.168392,0.14674 -0.144336,0.312728 -0.12028,0.483524 -0.01684,0.122686 -0.259803,-0.139525 -0.110659,-0.07938 -0.139523,-0.01924 -0.144336,0.0866 -0.113063,0.09623 -0.117874,0.03608 -0.18042,0.01203 -0.235748,-0.05051 -0.158768,-0.04571 -0.02406,0.02406 0.0866,0.204476 0.03127,0.161175 -0.03368,0.0842 -0.07698,0.07217 -0.115469,0.05533 -0.134713,0.03127 -0.12028,-0.0024 -0.190041,-0.07698 -0.146742,-0.0049 -0.12509,0.0385 -0.07457,0.05774 -0.0433,0.06976 -0.07217,0.401734 -0.06495,0.12509 -0.09141,0.07217 -0.08901,0.0072 -0.12509,-0.01924 -0.129902,0.01683 -0.586966,0.153959 -0.0866,0.01683 -0.182825,0.01203 -0.170797,0.0024 -0.12028,-0.0072 -0.283859,-0.15877 -0.134714,-0.01684 -0.07698,0.04571 -0.05051,0.211692 -0.165985,0.137118 -0.218909,0.293482 -0.05051,0.433007 0.02166,0.300699 -0.197259,0.298294 -0.01684,0.144336 0.103439,0.692811 -0.01684,0.07217 -0.0409,0.03608 -0.122684,0.02406 -0.206881,0.07217 -0.13712,0.06735 -0.06736,0.0096 -0.192448,-0.05293 h -0.05292 l 0.01684,0.05293 0.153957,0.298293 0.161175,0.14193 0.165986,-0.01444 0.07217,0.02647 -0.02166,0.07217 0.06495,0.187637 0.149146,0.303105 0.04571,0.228531 -0.09141,0.226126 0.01683,0.07938 0.05051,0.04811 0.139525,0.211693 0.300699,0.327161 0.293482,0.356027 0.247777,0.298293 0.180419,0.204477 0.401734,0.382489 0.06976,0.180419 0.01684,0.360839 0.09863,0.209287 0.09141,0.149147 0.06254,0.125091 0.149147,0.411356 0.06254,0.05533 0.32235,-0.250181 0.07457,0.05293 0.0409,0.09382 v 0.12028 l -0.05051,0.134713 -0.103439,0.125091 -0.497958,0.291076 -0.0409,0.247777 -0.03368,0.377678 -0.0072,0.466685 0.02165,0.346405 -0.01684,0.07938 -0.0433,0.03849 -0.187636,-0.01444 -0.271832,0.175609 -0.09382,0.01444 -0.120279,0.06735 -0.08901,0.08179 -0.02887,0.127496 0.05292,0.380084 0.09623,0.360839 0.190041,0.262209 0.149147,0.206881 0.209287,0.291077 0.165986,0.250182 0.331972,0.276643 0.46909,0.413762 0.178014,0.228532 0.156364,0.276642 0.113062,0.235749 0.0409,0.312727 0.03608,0.175609 0.0096,0.586963 -0.0866,0.134715 -0.06495,0.153957 0.03608,0.161175 0.108253,0.156363 v 0.175609 l 0.103439,0.317539 0.170798,0.192447 0.163581,0.129902 0.07217,0.103439 -0.02164,0.165986 0.04811,0.175608 0.03608,0.190042 0.06495,0.264615 0.132308,0.22372 0.204475,0.685595 -0.0072,0.06976 -0.0866,0.139524 -0.127497,0.125091 -0.08178,0.0409 -0.07698,0.129902 -0.18523,0.36565 -0.370462,0.632672 -0.363244,0.413761 -0.305511,0.291077 -0.221314,0.178014 -0.06495,0.105846 v 0.0842 l 0.0409,0.146741 -0.01684,0.281454 -0.04571,0.178015 -0.06254,0.187636 -0.03608,0.168392 -0.09863,0.02647 -0.209286,0.319943 -0.09141,-0.161174 -0.05293,-0.165986 0.05774,-0.380084 -0.127497,-0.719273 0.07938,-0.09622 0.07457,-0.04811 0.139525,-0.274237 0.168391,-0.271833 0.01684,-0.32716 0.137118,-0.238154 -0.03368,-0.199665 0.0072,-0.233341 0.02886,-0.192448 -0.0096,-0.156364 0.108251,-0.16358 0.187636,-0.12028 -0.07938,-0.0433 -0.07698,-0.08901 -0.24537,0.134713 -0.127497,-0.0433 -0.02406,-0.14193 0.03127,-0.149146 0.01203,-0.09141 0.09863,-0.103439 -0.0072,-0.20207 -0.04811,-0.175608 0.06977,-0.221315 h -0.144336 l -0.06735,-0.0433 0.0433,-0.122685 0.129902,-0.108252 -0.117874,-0.204475 0.0866,-0.221314 -0.0024,-0.271832 -0.06014,-0.24056 0.0024,-0.173202 -0.09141,-0.305511 -0.0433,-0.392111 -0.194852,-0.291077 -0.144336,-0.42579 -0.389707,-0.553287 0.0072,-0.238153 -0.01924,-0.209287 -0.0866,-0.103439 -0.110657,0.740922 -0.0866,-0.144335 -0.02646,-0.413763 -0.05774,-0.194852 0.06014,-0.389707 -0.22372,-0.3873 -0.04811,-0.281454 -0.146742,-0.425791 0.0433,-0.09382 0.19726,0.09623 -0.180419,-0.247776 -0.149148,0.05533 -0.12509,-0.267023 -0.02887,-0.726488 -0.122685,-0.271832 0.06735,-0.274238 -0.14193,-0.991104 -0.276644,-0.319944 0.05533,-0.276643 0.06977,-0.242965 -0.01684,-0.454658 0.06977,-0.139523 0.134713,-0.105846 -0.127496,0.03608 -0.108252,0.03368 -0.252587,0.02647 -0.283861,0.0049 -0.09863,-0.331973 -0.139524,-0.158769 -0.122686,-0.331971 -0.07457,-0.377679 0.04811,-0.07457 -0.21891,-0.153958 -0.05774,-0.09382 -0.228531,-0.24537 -0.262209,-0.185231 0.05774,0.129903 0.06977,0.0842 -0.129901,0.226126 0.127495,0.382489 -0.110657,0.242965 -0.105846,0.319944 -0.09863,0.149147 -0.315133,0.32716 -0.254992,0.110659 -0.165987,0.01924 -0.14674,-0.03368 -0.18042,-0.168392 -0.04571,-0.139525 -0.02887,-0.235748 -0.06254,-0.03608 -0.06977,0.02887 0.108251,0.30551 -0.0024,0.14193 0.192447,0.271833 -0.06977,0.07698 -0.346406,0.151552 -0.120279,-0.02406 -0.0842,0.02887 -0.02165,0.122686 -0.04571,0.06976 -0.548475,0.187637 -0.113063,0.214098 -0.06977,0.214097 -0.274238,0.307916 -0.365649,0.257398 -0.09141,-0.01444 -0.10344,-0.06014 0.01444,-0.276644 0.125091,-0.233342 -0.03848,-0.250182 -0.03127,0.144336 -0.235749,0.346405 -0.108251,0.115469 -0.216503,-0.03127 -0.298294,0.04571 -0.113063,-0.356028 0.0024,-0.132308 -0.02406,-0.110658 0.03608,-0.117873 -0.01203,-0.09381 -0.07217,0.180419 -0.02647,0.153958 -0.110656,0.137118 -0.3007,0.149147 -0.01203,-0.187635 -0.0096,-0.170798 0.06495,-0.151553 -0.0096,-0.240558 0.09622,-0.348812 -0.0072,-0.12028 -0.02887,-0.132307 -0.05533,0.192448 -0.02887,0.199664 -0.06254,0.06014 -0.108252,0.0433 -0.204475,0.228532 -0.117874,0.204475 -0.315134,0.192449 -0.165985,-0.01924 -0.01924,-0.24537 0.125091,-0.868419 0.122686,-0.122686 0.05774,-0.149146 0.10344,-0.509986 0.115467,-0.190042 0.04571,-0.404139 0.04571,-0.06735 0.153957,-0.317539 0.05533,-0.579748 -0.06495,-0.288672 -0.144335,-0.279048 -0.139525,-0.839552 -0.363244,-0.678378 -0.03127,-0.22853 -0.178014,-0.274238 0.163581,-0.01924 -0.339189,-0.24056 -0.04571,-0.09863 -0.06977,-0.560503 0.01444,-0.315134 -0.05051,0.0409 -0.04571,0.194852 -0.134713,0.07938 0.06014,0.334377 -0.01444,0.08179 -0.06977,0.132307 -0.286265,-0.137119 -0.206881,-0.146741 -0.238153,-0.358433 -0.230938,-0.40414 0.0842,-0.06254 0.105846,-0.0072 0.327162,0.298294 0.214097,0.06254 0.134712,-0.07457 0.168392,-0.127497 0.07938,-0.247777 -0.08179,-0.09141 -0.161175,-0.04811 -0.105845,-0.06736 -0.153958,-0.168392 -0.01924,-0.0842 -0.04811,-0.110657 -0.156364,-0.07698 -0.125091,-0.09863 0.105846,-0.173203 0.103439,-0.129901 -0.274238,0.0072 -0.315133,-0.22372 -0.06495,-0.06254 -0.105846,-0.04571 -0.24537,-0.02646 -0.206881,0.06495 0.09381,0.317538 -0.01924,0.105846 -0.134714,-0.01684 -0.281454,-0.481119 0.0866,-0.122685 0.120279,-0.115469 -0.06014,-0.01444 -0.115469,0.0072 0.113063,-0.428195 -0.06977,-0.06495 -0.03608,0.134715 -0.06254,0.129901 -0.238155,0.300699 -0.120279,-0.05533 -0.08179,-0.07457 0.115468,-0.158769 0.06254,-0.0433 0.0433,-0.0866 -0.08901,-0.165985 -0.139523,-0.12028 -0.113064,-0.206881 -0.06014,-0.0049 0.05293,0.247777 -0.02165,0.351217 -0.252587,-0.389706 -0.50758,-0.550881 -0.117875,-0.163581 -0.02647,-0.161175 -0.05774,-0.151552 -0.0385,-0.161174 -0.0096,-0.127497 -0.108252,-0.113063 -0.05051,-0.199664 -0.02887,-0.20207 0.06495,-0.144335 0.156363,-0.153958 0.113063,-0.02887 0.09141,0.06977 0.218909,0.10344 0.149146,0.09382 0.06495,0.127496 0.06735,-0.01684 0.06977,-0.07938 -0.01203,-0.09863 -0.07217,-0.259805 -0.01924,-0.315132 -0.0024,-0.736112 -0.01924,-0.0842 0.122686,-0.07457 0.05051,-0.0842 0.04811,-0.127496 0.03127,-0.05533 0.06977,-0.0024 0.110656,0.06014 0.182825,0.211693 0.122686,0.04811 0.120279,-0.03368 0.127497,-0.315132 0.04571,-0.0866 0.06014,-0.05533 0.113064,0.0096 0.06495,-0.05774 0.02418,-0.137168 v -0.151553 l -0.125091,-0.416168 -0.03849,-0.190042 -0.01924,-0.190042 0.07698,-0.194853 0.105846,-0.226125 -0.02406,-0.199664 0.02887,-0.07698 0.0866,-0.01203 0.110658,0.04811 0.120279,-0.03368 0.09141,-0.120279 0.03608,-0.105847 0.05533,-0.459468 0.03608,-0.420979 0.01684,-0.341594 -0.09381,-0.204476 -0.144336,-0.553286 0.0409,-0.09381 0.06495,-0.02165 0.214098,0.192447 0.09141,0.03368 0.153958,-0.02887 0.153958,-0.0433 0.110658,-0.0024 0.158769,0.06495 0.218909,0.07457 0.341594,0.08901 0.14193,0.06976 0.115469,-0.0096 0.09381,-0.214097 0.110658,-0.312728 0.161174,-0.464279 0.185231,-0.336783 0.04811,-0.09141 0.206882,-0.274237 0.199664,-0.288671 0.175608,-0.363245 0.09863,-0.26221 -0.0096,-0.110657 -0.06254,-0.08901 -0.132308,-0.05774 -0.108252,-0.06014 -0.02886,-0.05533 0.0024,-0.06014 0.05774,-0.170798 0.09381,-0.199664 0.09863,-0.110657 0.259805,-0.132308 0.165986,-0.173203 0.187636,-0.230937 0.101038,-0.156363 0.05051,-0.315133 0.05774,-0.06495 0.113063,-0.101037 7.847045,0.153957 0.0049,0.120279 -0.06977,0.08179 -0.146742,0.0096 -0.204475,0.07457 -0.139525,0.247776 -0.151552,0.20207 -0.08179,0.0409 -0.271831,-0.05774 -0.06495,0.05293 -0.09622,0.344 -0.07938,0.149147 -0.11547,0.125091 -0.108251,0.07457 -0.09622,0.05051 -0.218909,-0.03368 -0.113063,0.209287 -0.115468,0.274238 -0.0096,0.14193 0.06014,0.22372 -0.03127,0.06254 -0.117874,0.04811 -0.192448,0.101038 -0.117874,0.319944 0.0049,0.310321 0.06977,0.105847 0.132307,0.04811 0.09382,0.09381 0.0096,0.149147 0.08179,0.187636 -0.03849,0.218909 -0.269426,0.315133 -0.0072,0.173202 0.144336,0.05293 0.122685,-0.02406 0.153957,-0.07457 0.18042,-0.122685 0.394517,-0.175609 0.430602,-0.101037 0.341594,-0.01684 0.291076,0.0072 0.14193,0.03608 0.0433,0.06495 0.399329,-0.103439 0.0842,-0.0049 0.06977,-0.0049 -0.0024,0.06736 -0.291078,0.281454 -0.05533,0.129902 0.0096,0.141931 0.12028,0.129902 0.115468,0.101038 0.09863,0.252587 -0.07698,0.230937 0.04811,0.0842 0.0866,0.09623 0.05292,0.132307 0.0072,0.161175 -0.04811,0.259804 0.420979,0.134713 0.363244,0.06014 0.267022,0.01684 0.168391,0.06014 0.103439,0.05051 0.07217,0.09141 0.02165,0.101037 -0.08901,0.07217 -0.180419,0.226125 -0.103439,0.303105 0.01203,0.228531 -0.01203,0.197259 -0.209286,0.283861 -0.08179,0.194852 -0.07457,0.199664 0.0024,0.08901 0.0433,0.06014 0.08901,0.03608 0.153958,0.01924 0.187636,-0.02165 0.449847,0.04811 0.512391,0.0866 0.204475,0.04811 0.06735,0.08901 -0.01683,0.192447 -0.03368,0.18042 0.03368,0.139525 0.08178,0.12509 0.139524,0.0433 0.12028,0.04811 0.02166,0.09863 -0.03608,0.129902 0.06014,0.10344 0.06976,0.06977 0.146742,0.03849 0.298293,-0.0842 0.211693,0.03848 0.187636,0.05774 0.161175,-0.03127 0.158768,-0.07457 0.348811,-0.334377 0.406546,-0.18042 0.132308,-0.0433 0.09141,0.02165 0.02165,0.02406 -0.0072,0.06735 0.0433,0.274238 z"
       style="fill:#d55e00;fill-opacity:1;fill-rule:nonzero;stroke:#ffffff;stroke-width:0.257399;stroke-linecap:butt;stroke-linejoin:round;stroke-miterlimit:10;stroke-dasharray:none;stroke-opacity:1"
       id="path2286" />
    <path
       d="m 60.460715,19.586555 -0.120096,0.02514 -0.298847,0.0028 -0.259744,0.2374 -0.181542,0.09775 -0.279294,0.081 -0.301639,0.134063 -0.08379,0.234607 -0.0084,0.167577 -0.05027,0.18992 -0.483181,0.276503 -0.136855,-0.02793 -0.09217,-0.103339 -0.14244,0.01955 -0.09775,0.05307 -0.114511,-0.0084 -0.128475,0.06144 -0.167577,-0.01956 -0.156406,-0.08658 -0.08937,-0.02234 h -0.106132 l -0.01955,0.10334 0.156406,0.396598 0.0419,0.184336 -0.516696,0.539039 0.05586,0.346326 -0.139647,0.268123 -0.315604,0.215057 -0.586519,0.550212 -0.265331,0.01396 -0.198299,0.12289 -0.4357,0.910502 -0.0056,0.310017 -0.06703,0.229023 0.01397,0.217849 -0.192713,0.430115 -0.195507,0.181542 -0.04468,0.234607 0.282088,0.483181 0.03073,0.08658 0.164784,0.256951 0.0782,0.187127 0.125683,0.184336 0.452458,0.480387 0.203886,0.148027 0.242987,0.100546 0.438493,0.432907 0.223436,0.273709 -0.100546,0.18992 0.05027,0.3966 -0.315604,-0.117304 0.0391,0.04748 0.371463,0.21785 0.561383,0.762476 0.485973,0.377048 0.497146,0.427322 0.153612,0.407771 0.446872,0.268122 0.497145,0.391014 -0.02234,0.08658 0.136855,0.106133 0.332361,0.206677 0.203885,0.220644 0.0782,0.206678 0.12289,0.03351 0.139648,-0.05027 0.136854,-0.01956 0.100546,0.01397 0.148027,0.229022 0.209471,0.203886 0.100547,0.187127 0.081,-0.02514 0.06982,0.02793 0.01676,0.159198 0.03072,0.100546 0.279295,0.301639 0.134062,0.284881 0.332361,0.458044 0.24578,0.262537 0.175955,0.148026 0.201093,0.125683 0.195507,0.508318 0.108925,0.463629 0.209471,0.513903 0.159198,0.223436 0.0056,0.421735 0.128475,0.435701 0.139648,0.293259 0.0391,0.298847 0.04468,0.150819 0.05307,0.111718 0.148026,0.508317 -0.0391,0.234608 -0.103339,-0.231815 0.01117,0.684273 0.09217,0.36029 -0.0391,0.44408 0.09496,0.153611 0.173162,0.499939 0.120098,0.181542 -0.01117,0.611656 0.06424,0.307225 -0.161991,-0.184335 -0.117303,-0.209472 -0.156406,0.111718 -0.14244,0.161992 0.220643,0.659136 -0.251365,-0.06144 0.02234,0.882572 0.103339,0.206678 0.0084,0.100547 -0.03072,0.117304 -0.06982,-0.128476 -0.01397,-0.134061 -0.0391,0.03073 0.0028,0.06703 -0.08379,0.156406 -0.02514,0.192713 0.08938,0.164784 0.01676,0.125683 -0.06703,0.156405 -0.103339,0.164784 -0.237401,0.01955 -0.05307,0.321188 -0.08379,0.340741 -0.421736,0.05586 -0.310017,0.298846 -0.379841,0.111718 -0.34074,0.298845 -0.374256,0.27371 -0.245779,0.03631 -0.206679,0.06144 -0.240194,0.455252 -0.399391,0.05307 -0.717789,0.374256 -0.240194,0.178749 -0.220642,0.06982 -0.312811,0.156405 -0.06982,-0.05585 -0.103339,-0.134061 -0.273709,-0.06703 -0.131269,-0.150819 -0.0391,-0.192714 -0.03631,-0.0782 -0.05865,0.111718 -0.04468,0.458044 -0.04748,0.103339 -0.117304,0.04468 -0.229022,-0.128475 -0.21785,-0.265331 -0.310018,0.181542 0.09496,0.02234 0.14244,-0.01397 0.108926,0.04468 0.09217,0.178749 -0.0028,0.09496 -0.04748,0.111718 -0.290466,0.01676 -0.388221,-0.0391 -0.07261,0.01676 0.354705,0.17037 0.323982,0.100546 0.142441,0.108925 v 0.08937 l -0.181542,0.145234 -0.139648,0.175956 -0.0028,0.111718 -0.0028,0.12289 -0.156405,0.106132 -0.09775,-0.02234 -0.276503,-0.184334 -0.801576,-0.72896 0.120096,0.206678 0.829507,0.829507 0.145233,0.270916 0.01955,0.192713 -0.08379,0.09775 -0.139647,0.114511 -0.273709,0.0084 -0.44408,-0.307224 -0.712202,-0.740132 -0.242987,-0.100546 0.720582,0.84347 0.117303,0.206679 0.122891,0.2374 -0.03351,0.139648 -0.06424,0.131269 -1.706493,0.784819 -0.254158,0.337947 -0.201092,0.41615 -0.337948,0.231815 -0.195506,0.212264 -0.569762,0.120096 -0.310017,-0.0391 0.321189,-0.382634 -0.1983,-0.145233 -0.0084,-0.988705 0.0782,-1.086458 0.148027,-0.544625 0.215057,-0.134062 0.268123,-0.08379 0.0056,-0.114511 -0.02514,-0.131268 -0.145233,-0.184336 -0.159199,-0.08658 -0.2374,-0.03631 -0.181542,-0.226229 -0.139647,0.0084 -0.215058,0.07541 -0.128476,-0.09775 -0.04748,-0.150819 -0.201092,-0.189921 -0.229023,-0.184334 0.10334,-0.02793 0.120096,-0.106131 0.128476,-0.136855 0.321189,-0.01955 0.32119,0.0084 0.09217,-0.03631 0.128475,-0.14244 0.212264,-0.187128 0.159199,-0.103339 0.03631,-0.081 -0.06424,-0.195506 -0.03351,-0.201093 0.05865,-0.06144 0.290467,0.03351 0.321189,0.09496 0.0782,0.0419 0.181542,-0.24578 0.05027,-0.03073 h 0.120096 l 0.315604,-0.04468 0.310017,-0.06424 0.148027,0.01117 0.14244,0.164784 0.108925,0.161991 0.05586,0.01117 0.161991,-0.06703 0.131269,0.08658 0.279295,0.139647 0.164784,0.0056 -0.081,-0.326775 0.09217,-0.234608 -0.01676,-0.06424 -0.159199,-0.106132 -0.53066,-0.430115 -0.09217,-0.128475 0.01397,-0.201092 -0.01955,-0.296054 -0.04748,-0.187127 0.0084,-0.108925 0.03351,-0.08658 0.09775,-0.03351 0.09496,-0.01117 0.07541,-0.07821 0.128475,-0.192713 0.245781,0.01676 0.349118,0.108925 0.256952,0.06982 0.153612,-0.01397 0.03351,-0.02793 -0.0056,-0.10334 0.01955,-0.449665 -0.01117,-0.09496 0.220643,-0.0419 0.335154,-0.01117 0.175956,-0.02514 0.164784,-0.18992 0.427322,-0.06424 0.304431,-0.254159 0.279296,-0.262537 0.134061,-0.06703 0.173163,-0.04748 0.128476,0.0084 0.161991,0.150819 0.134061,-0.09217 0.156406,-0.175955 0.08099,-0.175956 0.04468,-0.279296 -0.03073,-0.427321 -0.08379,-0.335155 -0.07541,-0.251365 -0.01676,-0.251366 0.181542,-0.505523 0.153613,-0.547419 -0.03073,-0.21785 -0.167577,-0.34074 -0.17037,-0.416149 -0.184335,-0.458045 -0.06982,-0.06982 -0.05027,-0.128476 -0.02793,-0.148026 0.07261,-0.469216 0.01117,-0.156405 0.215057,-0.212264 0.114511,-0.24578 0.106132,-0.268124 -0.0391,-0.14244 -0.01397,-0.290467 0.02514,-0.139647 -0.05027,-0.114511 -0.06144,-0.164784 0.0419,-0.108925 0.15082,-0.09217 0.08658,-0.156405 0.111718,-0.184335 0.05027,-0.17037 -0.081,-0.139647 -0.145234,-0.212264 -0.268123,-0.192714 -0.310018,-0.242986 -0.150819,-0.15082 -0.120097,-0.153612 -0.108925,-0.178749 -0.06144,-0.142441 0.05865,-0.09217 0.438493,-0.215057 0.081,-0.07821 0.04748,-0.120096 -0.03631,-0.114511 -0.117303,-0.06424 -0.136855,-0.0419 -0.203934,-0.136835 -0.377048,-0.368669 -0.173163,-0.08379 -0.181542,-0.106131 -0.09775,-0.111719 -0.106132,-0.307224 -0.04748,-0.02793 -0.106131,0.09217 -0.134063,0.09775 -0.108924,-0.01676 -0.10334,-0.08658 -0.04748,-0.117304 -0.111718,-0.161991 -0.12289,-0.128476 -0.03073,-0.441286 -0.01955,-0.142441 -0.06144,-0.201092 -0.09496,-0.07261 -0.100546,-0.05307 -0.234608,-0.363083 -0.164784,-0.189921 -0.673101,-0.513903 -0.08379,-0.081 -0.181541,-0.209472 -0.315604,-0.298846 -0.223436,-0.242987 -0.164784,-0.248572 -0.07541,-0.21785 -0.02514,-0.167577 -0.178749,-0.242987 -0.153612,-0.198299 -0.148027,-0.06424 -0.17037,-0.02793 -0.153612,-0.117304 -0.282088,-0.268123 -0.125683,-0.17037 -0.07262,-0.117304 0.0028,-0.117304 0.06703,-0.1983 0.08379,-0.114511 0.0028,-0.08658 -0.081,-0.07261 -0.312776,-0.128471 -0.706617,-0.192714 -0.26533,-0.148026 -0.242987,-0.189921 -0.184334,-0.128476 -0.863022,-0.547418 -0.262537,-0.09217 -0.223437,-0.09496 -0.06982,-0.09496 0.01396,-0.09217 0.08937,-0.06703 0.245779,-0.139648 0.08937,-0.159198 -0.02793,-0.212264 -0.09775,-0.212264 0.04748,-0.07541 0.0782,-0.0084 0.164784,-0.0056 0.34074,-0.01117 0.731754,0.192713 0.106131,-0.01955 0.3966,-0.351912 0.150819,-0.209471 0.03351,-0.175956 0.0782,-0.111718 0.209471,-0.184335 0.0056,-0.167577 -0.106132,-0.220643 -0.103339,-0.08658 -0.08937,-0.0391 -0.293259,0.03073 -0.05307,-0.05027 -0.0391,-0.164784 -0.01397,-0.10334 -0.09775,-0.117304 -0.31281,-0.103338 -0.265331,-0.02793 -0.06424,-0.0419 0.103339,-0.114512 0.181541,-0.114511 0.136855,-0.06424 0.108925,-0.117304 0.02234,-0.120097 -0.136854,-0.106132 -0.175956,-0.120097 -0.284881,-0.223436 -0.396599,-0.240194 -0.240194,-0.08099 -0.125683,0.01117 -0.432907,0.203886 -0.234608,0.134061 -0.195506,0.240194 -0.203886,0.05027 -0.203886,-0.103339 -0.234607,-0.108925 -0.645172,-0.156406 -0.273709,-0.134061 -0.564176,-0.801577 -0.08379,-0.164784 0.05585,-0.184335 0.0391,-0.26533 0.05586,-0.17037 0.100546,-0.164785 0.02514,-0.145233 -0.02234,-0.142441 -0.08379,-0.08099 -0.106132,-0.02514 -0.0782,-0.03073 -0.07541,-0.187127 -0.04468,0.02234 -0.06982,0.229022 -0.08379,0.08099 -0.108926,0.0419 -0.08658,-0.03631 -0.05307,-0.09217 -0.02514,-0.153612 -0.05586,-0.209471 -0.06982,-0.134062 -0.242987,-0.139647 -0.114511,-0.17875 -0.360291,-0.38822 -0.301638,-0.273709 -0.142441,-0.24578 0.12289,-0.09217 0.156405,-0.134062 0.167577,-0.206678 0.187128,-0.259744 0.07821,-0.156405 0.05586,-0.06424 0.108925,-0.04748 0.120097,0.02514 0.206678,0.106132 0.312811,0.134061 0.279295,0.156405 0.114511,0.159199 0.153612,0.153612 0.120097,0.04748 0.06144,-0.01397 0.178749,-0.114511 0.156405,-0.114511 0.0028,-0.131269 0.142441,-0.117304 0.187128,-0.195507 0.08658,-0.131268 0.06703,-0.01397 0.07541,0.0391 0.29326,0.40777 0.05586,0.02514 0.08379,-0.06144 0.114511,-0.318396 0.128476,-0.12289 0.0419,0.03073 0.712202,0.600484 0.06703,-0.0056 0.07541,-0.02793 0.05027,-0.09217 0.05585,-0.206678 0.106133,-0.220643 0.229022,-0.125683 0.175956,-0.02234 0.06703,0.106132 0.153613,0.145233 0.187127,0.01955 0.3966,-0.256951 0.128475,-0.0419 0.139647,0.0056 0.142441,-0.01117 0.134061,-0.09775 0.142441,-0.131268 0.05027,-0.256952 0.03072,-0.231814 0.09775,-0.09496 0.114511,-0.06144 0.21785,-0.08658 0.497146,-0.223436 0.125682,-0.106132 0.09496,-0.06144 0.189921,0.09775 0.229022,0.187128 0.139648,0.139647 0.09496,0.153612 0.0419,0.125683 0.365876,0.111718 0.234608,0.156406 0.153612,0.120096 0.153613,-0.0056 0.153612,-0.03351 0.09775,-0.09496 0.173163,-0.0028 0.203885,0.01397 0.09217,0.0391 0.167577,0.220643 0.07541,0.03073 0.150819,-0.01397 0.287674,-0.0782 0.231814,-0.0391 0.212265,0.08938 0.399392,0.24578 -0.111718,0.175956 -0.08937,0.189921 -0.175956,0.131268 -0.128476,0.03351 -0.08379,0.187128 -0.03631,0.273709 0.04468,0.136855 0.100546,0.04468 0.111718,0.09217 0.04468,0.122889 0.01676,0.270917 -0.0056,0.307224 0.01397,0.100546 0.08658,-0.01955 0.081,-0.03631 0.164784,0.04748 0.206679,0.0782 0.131268,0.081 0.114511,-0.0084 0.09217,0.0782 0.03351,0.15082 0.106132,0.106131 0.298846,0.1983 0.240194,0.01676 0.203885,0.262537 0.209471,-0.08658 0.09775,0.114511 0.432908,-0.0419 0.301639,-0.106132 0.111718,0.02793 0.270915,0.217849 z"
       style="fill:#d55e00;fill-opacity:1;fill-rule:nonzero;stroke:#ffffff;stroke-width:0.298846;stroke-linecap:butt;stroke-linejoin:round;stroke-miterlimit:10;stroke-dasharray:none;stroke-opacity:1"
       id="path2362" />
    <path
       d="m 45.667174,17.441209 0.143054,0.25492 0.302938,0.283887 0.361843,0.402656 0.115012,0.185396 0.244034,0.144842 0.07012,0.139047 0.05611,0.21726 0.02526,0.159323 0.0533,0.09559 0.08696,0.03766 0.109394,-0.04347 0.08415,-0.08402 0.07012,-0.237538 0.04489,-0.02316 0.07574,0.194086 0.07855,0.03187 0.106584,0.02608 0.08416,0.08399 0.02244,0.147738 -0.02525,0.150633 -0.100989,0.170911 -0.05609,0.176707 -0.03926,0.275196 -0.0561,0.191189 0.08416,0.170912 0.566604,0.831384 0.274888,0.139047 0.647952,0.162222 0.235619,0.112974 0.204763,0.107185 0.204764,-0.05215 0.196349,-0.249127 0.235618,-0.139046 0.434772,-0.211465 0.126224,-0.01161 0.241229,0.08401 0.398305,0.249124 0.286108,0.231745 0.176715,0.124563 0.137444,0.110074 -0.02244,0.124563 -0.109394,0.121667 -0.137446,0.06662 -0.182322,0.118779 -0.103787,0.118777 0.06451,0.04345 0.266475,0.02897 0.314157,0.107185 0.09816,0.121667 0.01403,0.107185 0.03926,0.170912 0.0533,0.05215 0.294524,-0.03187 0.08976,0.04055 0.103786,0.0898 0.106585,0.228849 -0.0058,0.173807 -0.210373,0.19119 -0.07854,0.115864 -0.03366,0.182501 -0.15147,0.217259 -0.398306,0.364999 -0.106585,0.02027 -0.734905,-0.19988 -0.342206,0.01161 -0.165494,0.006 -0.07855,0.0086 -0.04768,0.07822 0.09816,0.220157 0.02805,0.220158 -0.08976,0.165116 -0.246837,0.14484 -0.08976,0.06952 -0.01403,0.09559 0.07013,0.09849 0.224397,0.09849 0.263668,0.09559 0.866741,0.567774 0.185129,0.133253 0.244034,0.196982 0.266471,0.153532 0.709663,0.199881 0.314156,0.133252 0.08135,0.07532 -0.0028,0.0898 -0.08416,0.118779 -0.06732,0.205674 -0.0028,0.121667 0.07293,0.121667 0.126225,0.176706 0.283303,0.278094 0.154275,0.121667 0.171104,0.02896 0.148665,0.06662 0.154272,0.205673 0.179519,0.252024 0.02526,0.173808 0.07574,0.225951 0.165496,0.257815 0.224397,0.252024 0.316963,0.309958 0.182323,0.217261 0.08416,0.08402 0.676002,0.533013 0.165494,0.196983 0.235617,0.376584 0.100989,0.05504 0.09537,0.07532 0.06171,0.20857 0.01963,0.147737 0.03086,0.457695 0.123418,0.133254 0.112192,0.168015 0.04767,0.121668 0.103787,0.0898 0.109393,0.0174 0.13464,-0.101378 0.106584,-0.09559 0.04768,0.02897 0.106584,0.318649 0.09816,0.115864 0.182324,0.110073 0.17391,0.08691 0.378672,0.382379 0.204764,0.141945 0.137442,0.04344 0.117811,0.06662 0.03646,0.118779 -0.04768,0.124562 -0.08136,0.08111 -0.440381,0.223056 -0.0589,0.09559 0.06171,0.147736 0.109394,0.185396 0.120614,0.159325 0.151471,0.156428 0.311352,0.252022 0.269278,0.199879 0.145859,0.22016 0.08135,0.144839 -0.0505,0.176705 -0.112191,0.191189 -0.08695,0.162222 -0.151468,0.09559 -0.04207,0.112974 0.0617,0.170911 0.0505,0.118778 -0.02526,0.144842 0.01403,0.301267 -0.140249,0.107185 -0.12903,0.272299 -0.08976,0.02027 -0.224399,-0.09849 -0.07854,0.05504 -0.143055,0.199881 -0.249643,0.21726 -0.120614,0.0029 -0.08136,-0.02896 -0.09816,0.0927 -0.14025,0.170914 -0.0617,-0.006 -0.24123,0.04055 -0.09256,-0.05504 -0.11781,-0.141944 -0.18513,-0.141944 -0.171104,-0.101377 -0.09256,-0.06952 -0.08134,-0.118779 -0.07855,-0.07822 -0.137445,0.170911 -0.238423,0.159324 -0.221593,-0.02897 -0.109394,-0.02607 -0.08976,0.234643 -0.06451,0.04345 -0.403916,0.04055 -0.07574,0.03766 0.06452,0.214365 0.238424,0.364998 0.07012,0.208569 -0.148665,0.341824 -0.415137,-0.0086 -0.187935,-0.139046 -0.173909,-0.194086 -0.0617,-0.09849 -0.535753,-0.18829 -0.356232,0.130355 -0.109394,-0.006 -0.168297,-0.139046 -0.10099,-0.104282 -0.09816,-0.159325 -0.05611,-0.159324 -0.0058,-0.07242 0.157078,-0.05794 0.252449,-0.130356 0.204764,-0.147737 0.137443,-0.156428 0.05609,-0.162222 0.0058,-0.188292 0.0589,-0.489561 0.06171,-0.237537 -0.03357,-0.292574 -0.109394,-0.231745 v -0.34465 l 0.03927,-0.168016 0.01683,-0.112975 0.157079,-0.139048 0.106584,-0.19988 0.0589,-0.26361 0.0058,-0.188292 -0.04767,-0.115878 -0.154274,-0.110073 -0.255253,-0.107184 -0.16269,-0.130357 -0.06731,-0.162222 0.0058,-0.139047 0.07854,-0.121668 -0.193546,-0.136148 -0.465626,-0.147739 -0.260863,-0.179602 -0.0561,-0.20857 -0.193544,-0.272301 -0.336597,-0.338925 -0.176715,-0.486665 -0.01684,-0.6344 0.03926,-0.515632 0.145858,-0.596743 -0.196348,-0.431627 -0.215983,-0.228846 -0.300133,-0.168016 -0.283303,-0.240436 -0.272082,-0.312854 -0.325381,-0.463488 -0.378672,-0.611228 -0.255251,-0.2723 -0.129031,0.06373 -0.274886,-0.05794 -0.417943,-0.176704 -0.361844,-0.09559 -0.311352,-0.01449 -0.201958,0.04055 -0.09537,0.0927 -0.0058,0.0927 0.07854,0.0927 -0.04209,0.06952 -0.162689,0.05215 -0.131834,0.101388 -0.148665,0.223057 -0.100989,0.292576 -0.154273,0.112975 -0.238425,0.02608 -0.235618,0.08402 -0.230008,0.141943 -0.109394,0.110074 0.01403,0.07243 -0.0505,0.01738 -0.112191,-0.04055 -0.0533,-0.09849 0.0058,-0.153529 -0.11781,-0.101378 -0.24123,-0.05215 -0.274888,-0.165117 -0.308548,-0.275197 -0.213178,-0.147739 -0.120615,-0.01739 -0.171103,0.110073 -0.224399,0.234641 -0.185128,0.09559 -0.145859,-0.04924 -0.112191,0.08402 -0.07854,0.214367 -0.145858,0.17091 -0.319768,0.185395 -0.02244,0.02028 -0.361842,0.252023 -0.291719,0.252023 -0.339402,0.336028 -0.162689,0.05215 -0.151469,-0.08112 -0.230009,-0.084 -0.123417,-0.112975 0.232812,-0.573568 0.294524,-0.631506 0.07855,-0.292578 0.01124,-0.214363 -0.02804,-0.173809 -0.115014,-0.179602 -0.109394,-0.141943 -0.0084,-0.0927 0.03646,-0.09849 0.11781,-0.147738 0.15147,-0.225951 0.14025,-0.466385 0.1683,-0.495355 -0.01683,-0.298371 -0.134639,-0.330237 -0.07574,-0.309958 0.0589,-0.425831 -0.02244,-0.165119 -0.14586,-0.08402 -0.485261,-0.08402 -0.154274,0.01449 -0.123417,0.05504 -0.131835,0.115864 -0.159885,0.07243 -0.305742,0.04055 -0.286108,-0.144839 -0.241228,-0.243332 -0.05609,-0.298373 0.173908,-0.356306 0.126224,-0.289681 0.07293,-0.246229 -0.0084,-0.115864 -0.0533,-0.124564 -0.07013,-0.01449 -0.154274,-0.153532 -0.151469,-0.266507 -0.140248,-0.121668 -0.13464,0.02319 -0.123418,0.101378 -0.112191,0.1796 -0.08976,0.07243 -0.0617,-0.03187 0.01683,-0.159323 0.01963,-0.147739 0.140246,-0.582259 0.1683,-0.376585 0.196349,-0.176705 0.207568,-0.07242 0.221594,0.02608 0.18513,-0.03187 0.148663,-0.0927 -0.01403,-0.05215 -0.176715,-0.01449 -0.06732,-0.101378 0.03366,-0.188292 0.07855,-0.121668 0.120614,-0.05794 0.117811,-0.188293 0.112191,-0.324443 0.137446,-0.165118 0.162689,-0.0029 0.277693,-0.139047 0.392697,-0.275195 0.148664,-0.266508 0.148665,0.121667 -0.0533,0.307062 0.07574,0.06663 0.03926,0.110073 -0.02244,0.170914 0.03366,0.144839 0.0589,0.07242 0.08695,0.03476 0.415137,-0.124562 0.255253,-0.0086 0.106583,0.08111 0.09537,0.05215 0.120615,0.03766 0.09537,0.05215 0.0589,-0.01448 0.143054,-0.130358 0.04208,-0.02027 0.0058,-0.06372 -0.100989,-0.115864 -0.103787,-0.09559 0.0028,-0.214362 0.0505,-0.370792 0.01124,-0.194086 -0.01124,-0.460593 -0.01683,-0.130357 -0.09537,-0.150634 -0.249645,-0.286784 -0.07012,-0.176705 -0.03926,-0.17381 0.0058,-0.112975 -0.06452,-0.127459 -0.03086,-0.115864 0.109394,-0.06083 0.13464,-0.136149 0.06732,-0.211468 0.06451,-0.150635 0.09256,-0.06663 0.08136,-0.02316 0.0533,0.01449 0.210373,0.272299 0.266473,-0.13615 h 0.20196 l 0.173909,0.07242 z"
       style="fill:#d55e00;fill-opacity:1;fill-rule:nonzero;stroke:#ffffff;stroke-width:0.305005;stroke-linecap:butt;stroke-linejoin:round;stroke-miterlimit:10;stroke-dasharray:none;stroke-opacity:1"
       id="path2246" />
    <path
       style="fill:#000000;fill-opacity:1;stroke:#000000;stroke-width:0.264583px;stroke-linecap:butt;stroke-linejoin:miter;stroke-opacity:1"
       d="m 63.731266,40.0393 c -0.09116,-0.06351 -0.170561,-0.148675 -0.273476,-0.190537 -0.0745,-0.0303 -0.575363,0 -0.682342,0 -0.221382,0 -0.425794,0.03431 -0.64335,0.05849 -0.490381,0.05449 -0.765302,0.187905 -1.169728,0.467892 -0.07223,0.05001 -0.151786,0.0933 -0.21445,0.155964 -0.05533,0.05533 -0.09846,0.122383 -0.155964,0.175461 -0.0509,0.04699 -0.11842,0.06182 -0.175459,0.09747 -0.09667,0.06042 -0.194357,0.116615 -0.292433,0.175461 -0.04099,0.02461 -0.10324,0.04476 -0.136469,0.07798 -0.160354,0.160356 -0.275522,0.400248 -0.331423,0.623856 -0.01635,0.06544 -0.02754,0.152566 -0.05849,0.21445 -0.03562,0.07124 -0.07795,0.136329 -0.09748,0.21445 -0.01677,0.06712 -0.0099,0.156379 -0.03899,0.21445 -0.02286,0.04571 0,0.264967 0,0.331425 0,0.06089 0.02297,0.304996 0,0.350917 -0.02384,0.04767 -0.07677,0.09507 -0.09747,0.136469 -0.0058,0.01161 0.0058,0.02737 0,0.03899 -0.029,0.058 -0.08174,0.140226 -0.116975,0.175458 -0.06596,0.06596 -0.175559,0.09753 -0.253442,0.13647 -0.08113,0.04057 0.02085,-0.0013 -0.0195,0.03899 -0.01299,0.01299 -0.04549,0.0065 -0.05849,0.0195 -0.0046,0.0046 0.0046,0.0149 0,0.0195 -0.0055,0.0055 -0.0895,0.004 -0.09748,0 -0.07087,-0.03543 -0.17027,-0.148809 -0.272936,-0.09748 -0.09237,0.04618 -0.151794,0.152837 -0.233945,0.214451 -0.05568,0.04176 -0.142158,0.06417 -0.175461,0.09748 -0.02857,0.02857 -0.06107,0.139052 -0.09748,0.175459 -0.01995,0.01995 -0.308194,0.04425 -0.350916,0.05849 -0.04562,0.01521 -0.121029,0.06254 -0.155964,0.09748 -0.04034,0.04034 0.06164,-0.0016 -0.0195,0.03899 -0.03494,0.01746 -0.109598,0.03162 -0.136467,0.05849 -0.01312,0.01312 -0.01029,0.02463 -0.03899,0.03899 -0.01161,0.0058 -0.0298,-0.0092 -0.03899,0 -0.0046,0.0046 0.0046,0.0149 0,0.0195 -0.0195,0.0195 -0.09748,-0.0195 -0.116972,0 -0.0097,0.0097 -0.0097,0.02924 -0.0195,0.03899 -0.04858,0.04857 -0.0146,-0.02763 -0.09748,0 -0.03831,0.01278 -0.08313,0.04157 -0.116972,0.05849 -0.06239,0.03119 -0.171561,-0.03119 -0.233948,0 -0.12646,0.06323 -0.04969,0.193418 -0.07798,0.292433 -0.01881,0.06587 -0.05319,0.123963 -0.03899,0.194956 0.0028,0.01373 0.02953,0.08686 0.0195,0.116972 -0.01611,0.04833 -0.123142,0.1455 -0.175459,0.155964 -0.08133,0.01627 -0.312261,0.01942 -0.389911,0 -0.01783,-0.0045 -0.02254,-0.03077 -0.03899,-0.03899 -0.0058,-0.0029 -0.01791,0.0063 -0.0195,0 -0.0063,-0.02521 0,-0.05199 0,-0.07798 0,-0.0065 -0.0046,0.0149 0,0.0195 0.0046,0.0046 0.0195,0.0065 0.0195,0 0,-0.0065 -0.01299,0 -0.0195,0 -0.04549,0 -0.09098,0 -0.136467,0 -0.140026,0 -0.279892,-0.04317 -0.409406,0 -0.01744,0.0058 -0.02371,0.0288 -0.03899,0.03899 -0.01709,0.0114 -0.04395,0.005 -0.05849,0.0195 -0.02455,0.02455 -0.06966,0.08082 -0.09748,0.136469 -0.02809,0.05618 -0.02702,0.135115 -0.03899,0.194953 -0.0356,0.177978 -0.0108,0.197213 0.05849,0.370414 0.01029,0.02574 0.0082,0.07494 0.0195,0.09748 0.0029,0.0058 0.0149,-0.0046 0.0195,0 0.01876,0.01876 -0.0035,0.113472 0.0195,0.136469 0.04851,0.04851 0.152527,0.07569 0.21445,0.116973 0.07051,0.047 -0.102603,-0.02463 -0.0195,0.05849 0.04311,0.0431 0.226362,0.225496 0.272939,0.253442 0.06492,0.03895 0.06786,0.03199 0.116972,0.09748 0.06829,0.09105 0.01111,0.298117 -0.0195,0.389909 -0.01958,0.05875 0.01508,0.134631 0,0.194956 -0.0096,0.03851 -0.04263,0.08525 -0.05849,0.116972 -0.03423,0.06846 -0.188807,0.05849 -0.253439,0.05849 -0.135231,0 -0.26457,-0.04525 -0.389911,-0.09748 -0.04024,-0.01677 -0.07912,-0.03686 -0.116973,-0.05849 -0.008,-0.0046 -0.01029,-0.0195 -0.0195,-0.0195 -0.0065,0 0.0046,0.0149 0,0.0195 -0.02875,0.02875 -0.209357,-0.0031 -0.233948,-0.0195 -0.03622,-0.02416 -0.100629,-0.147793 -0.155964,-0.175458 -0.0986,-0.0493 -0.29768,-0.06134 -0.409405,-0.03899 -0.09283,0.01857 -0.216885,0.07981 -0.292431,0.136467 -0.140232,0.105174 0.04114,-0.02164 -0.05849,0.07798 -0.07096,0.07096 -0.01371,-0.02072 -0.05849,0.03899 -0.05636,0.07515 -0.09787,0.117168 -0.175461,0.155964 -0.0082,0.0041 -0.01029,0.0195 -0.0195,0.0195 -0.01299,0 0.0058,-0.02737 0,-0.03899 -0.0082,-0.01643 -0.02601,-0.02598 -0.03899,-0.03899 -0.04688,-0.04689 -0.19409,-0.136181 -0.253442,-0.155964 -0.02881,-0.0096 -0.06813,0.0073 -0.09748,0 -0.01767,-0.0044 -0.09504,-0.04143 -0.116973,-0.0195 -0.01976,0.01976 -0.03899,0.280493 -0.03899,0.331425 0,0.03009 0.01148,0.121545 0,0.155962 -0.0046,0.01378 -0.03403,0.03899 -0.0195,0.03899 0.01453,0 -0.0057,-0.04359 -0.0195,-0.03899 -0.02495,0.0083 -0.08332,0.04635 -0.09748,0.05849 -0.16456,0.141052 -0.199191,0.286327 -0.409405,0.370414 -0.13774,0.0551 -0.231413,0.06273 -0.370414,0.09748 -0.03529,-0.01175 -0.03626,0.03158 -0.05849,0.03899 -0.07126,0.02376 -0.223732,0.0034 -0.292434,-0.0195 -0.0087,-0.0029 -0.01029,-0.0195 -0.0195,-0.0195 -0.0065,0 0.0046,0.0149 0,0.0195 -0.07798,0.07798 0.03249,-0.08448 -0.0195,0.0195 -0.09557,0.19113 0.05126,0.265713 0.175458,0.389911 0.08181,0.08181 0.0636,0.03539 0.155964,0.05849 0.02819,0.007 0.04979,0.03194 0.07798,0.03899 0.07475,0.01868 0.1589,7.94e-4 0.233947,0.0195 0.08747,0.02188 0.190688,0.06092 0.272936,0.09748 0.02656,0.0118 0.05306,0.02402 0.07798,0.03899 0.0079,0.0047 0.01029,0.0195 0.0195,0.0195 0.0092,0 -0.01299,-0.01299 -0.0195,-0.0195 -0.0092,-0.0092 0,-0.05199 0,-0.03899 0,0.07332 0.0618,0.237257 0.116973,0.29243 0.05984,0.05985 0.134694,0.09393 0.175458,0.175461 0.03574,0.07147 0.121838,0.282702 0.07798,0.370415 -0.04172,0.08344 -0.321537,0.194675 -0.370414,0.29243 -0.05024,0.100473 -0.05995,0.194728 -0.07798,0.311928 -0.01307,0.08489 -0.05821,0.154874 -0.07798,0.233947 -0.02381,0.09523 -0.04216,0.19448 -0.05849,0.292431 -0.02967,0.17803 0.0195,0.36889 0.0195,0.545875 0,0.167452 -0.04478,0.442608 0.07798,0.565367 0.01664,0.01664 0.01471,-0.03701 0.05849,-0.0195 0.02175,0.0087 0.03673,0.03029 0.05849,0.03899 0.04635,0.01855 0.126185,0.0096 0.175458,0.0195 0.05038,0.01008 0.453441,0.07546 0.487387,0.05849 0.02906,-0.01453 0.04977,-0.04237 0.07798,-0.05849 0.03039,-0.01736 0.07273,-0.01423 0.09748,-0.03899 0.0046,-0.0046 -0.0046,-0.0149 0,-0.0195 0.02487,-0.02487 0.101156,-0.07629 0.13647,-0.09748 0.01762,-0.01058 0.04139,-0.0081 0.05849,-0.0195 0.05516,-0.03677 0.122303,-0.09394 0.175461,-0.13647 0.0754,-0.06032 0.13694,-0.136824 0.21445,-0.194955 0.06027,-0.0452 0.253301,-0.028 0.311928,-0.03899 0.159544,-0.02992 0.300265,-0.09671 0.448394,-0.155964 0.06827,-0.02731 0.11593,-0.08126 0.175459,-0.116973 0.01762,-0.01058 0.04086,-0.0089 0.05849,-0.0195 0.03152,-0.01892 0.04739,-0.05759 0.07798,-0.07798 0.03627,-0.02418 0.0807,-0.03431 0.116973,-0.05849 0.03277,-0.02185 0.06284,-0.06066 0.09748,-0.07798 0.0058,-0.0029 0.01299,0 0.0195,0 0.01299,-0.0065 0.0269,-0.01143 0.03899,-0.0195 0.02999,-0.02 0.04799,-0.05799 0.07798,-0.07798 0.0054,-0.0036 0.0149,0.0046 0.0195,0 0.02056,-0.02056 0.01844,-0.05743 0.03899,-0.07798 0.01027,-0.01027 0.02872,-0.0092 0.03899,-0.0195 0.0036,-0.0036 0.0159,-0.05489 0.0195,-0.05849 0.03197,-0.03197 0.09871,-0.03961 0.136469,-0.05849 0.138579,-0.06929 0.0593,-0.05491 0.214451,-0.116972 0.157194,-0.06288 0.334475,-0.09901 0.487386,-0.175459 0.03245,-0.01622 0.04363,-0.0557 0.05849,-0.07798 0.03395,-0.05093 0.08413,-0.08173 0.116972,-0.13647 0.151988,-0.253309 0.1855,-0.547036 0.253442,-0.818808 0.03571,-0.142854 0.03286,-0.313034 0.07798,-0.448398 0.0273,-0.08192 -0.03847,-0.215482 0,-0.29243 0.0097,-0.01934 0.03226,-0.03829 0.03899,-0.05849 0.01545,-0.04639 -0.0097,-0.107674 0,-0.155963 0.01397,-0.06982 0.06138,-0.128524 0.07798,-0.194956 0.02733,-0.109342 0.108966,-0.223618 0.253441,-0.175458 0.01191,0.004 0.04659,0.03503 0.05849,0.03899 0.01233,0.0041 0.02737,-0.0058 0.03899,0 0.02455,0.01228 -0.02447,0.0485 -0.0195,0.05849 0.02863,0.05726 0.054,0.154467 0.116972,0.175459 0.09223,0.03074 0.364884,-0.501444 0.389911,-0.584864 0.0094,-0.03123 0.02262,-0.103709 0.03899,-0.13647 0.0065,-0.01299 0.03403,-0.03899 0.0195,-0.03899 -0.02344,0 0.02851,0.03753 0.03899,0.05849 0.01839,0.03676 0.02598,0.07798 0.03899,0.116973 0.02114,0.06341 0.03974,0.137583 0.07798,0.194953 0.06125,0.09187 0.118956,0.150368 0.136467,0.272938 0.0074,0.05147 -0.004,0.10413 0,0.155964 0.003,0.03941 0.04745,0.08902 0.0195,0.116973 -0.01418,0.01418 -0.02661,-0.0019 0,-0.0195 0.266962,-0.177975 -0.153233,0.03757 0.331423,-0.21445 0.122753,-0.06383 0.346556,-0.187002 0.487386,-0.233945 0.02824,-0.0094 0.06986,-0.0057 0.09748,-0.0195 0.130514,-0.06526 0.20107,-0.301455 0.350919,-0.331425 0.04316,-0.0086 0.114417,-0.0029 0.155964,-0.0195 0.0195,-0.01299 0.03899,-0.02601 0.05849,-0.03899 0.03364,-0.03109 -0.02714,-0.01439 -0.0195,-0.0195 0.200218,-0.133479 0.425164,-0.237955 0.623853,-0.370414 0.0475,-0.03167 0.08306,-0.08306 0.116975,-0.116972 0.07197,-0.07198 0.199022,-0.148251 0.29243,-0.194956 0.03037,-0.01519 0.08223,-0.01254 0.116973,-0.0195 0.142989,-0.0286 0.329467,-0.06677 0.448397,-0.155964 0.106542,-0.0799 0.20928,-0.153377 0.331422,-0.21445 0.0028,-0.0013 0.09524,-0.102487 0.116975,-0.116973 0.09674,-0.0645 0.199414,-0.12519 0.292431,-0.194955 0.04661,-0.03496 0.08815,-0.08476 0.13647,-0.116973 0.01082,-0.0072 0.02736,0.0058 0.03899,0 0.0265,-0.01326 0.05148,-0.04524 0.07798,-0.05849 0.03045,-0.01521 0.08394,-0.02577 0.116972,-0.03899 0.0643,-0.02572 0.119758,-0.06963 0.175459,-0.09748 0.02999,-0.015 0.157665,-0.02119 0.175461,-0.03899 0.05298,-0.05299 -0.0021,-0.169379 0.0195,-0.233947 0.02291,-0.06874 0.0052,-0.09889 0.0195,-0.155964 0.01278,-0.05114 0.05458,-0.128659 0.07798,-0.175459 0.07893,-0.157869 0.368967,-0.169664 0.409405,-0.331422 0.02818,-0.112726 0.0073,-0.277876 -0.03899,-0.370414 -0.04057,-0.08114 0.0013,0.02085 -0.03899,-0.0195 -0.0093,-0.0093 -0.03899,-0.101701 -0.03899,-0.116972 0,-0.07409 0.04396,-0.141796 0.05849,-0.21445 0.04523,-0.226153 0.138999,-0.439023 0.194953,-0.662848 0.01577,-0.06309 0,-0.148696 0,-0.21445 0,-0.07397 0.02151,-0.07485 0.05849,-0.136467 0.0302,-0.05034 0.0384,-0.196731 0.0195,-0.253441 -0.01786,-0.05358 -0.07355,-0.08861 -0.09748,-0.13647 -0.0141,-0.02821 -0.01193,-0.06726 -0.0195,-0.09748 -0.01146,-0.04585 -0.0195,-0.06724 -0.0195,-0.116972 0,-0.0195 0.0195,-0.05849 0,-0.05849 -0.0092,0 0.01299,0.02601 0.0195,0.0195 0.01656,-0.01656 0.02598,-0.03899 0.03899,-0.05849 0.03899,-0.03249 0.07942,-0.06334 0.116975,-0.09748 0.06497,-0.05907 0.173953,-0.213696 0.253439,-0.253439 0.02326,-0.01161 0.07991,-0.02143 0.09748,-0.03899 0.01333,-0.01333 0.0031,-0.170323 0,-0.194955 -0.01461,-0.116761 -0.04303,-0.246071 -0.07798,-0.350917 -0.03004,-0.09012 -0.146092,-0.155469 -0.175461,-0.272939 -0.01355,-0.05419 -0.05818,-0.389909 -0.05849,-0.389909 -7.94e-4,0 0.0195,0.04065 0.0195,0.03899 0,-0.02601 0.0029,-0.05215 0,-0.07798 -0.0091,-0.08158 -0.04269,-0.154959 -0.05849,-0.233945 -0.02487,-0.124312 -2.65e-4,-0.285985 5.29e-4,-0.413824 z"
       id="path13186" />
    <path
       style="fill:#000000;stroke:#000000;stroke-width:0.264583px;stroke-linecap:butt;stroke-linejoin:miter;stroke-opacity:1;fill-opacity:1"
       d="m 63.438296,39.692799 c -0.318426,0 -0.636852,0 -0.955278,0 -0.07243,0 -0.162455,-0.01429 -0.233948,0 -0.116572,0.02331 -0.227838,0.03899 -0.350916,0.03899 -0.240446,0 -0.480889,0 -0.721334,0 -0.108783,0 -0.243628,-0.02146 -0.35092,0 -0.07267,0.01452 -0.142139,0.0074 -0.21445,0.0195 -0.104386,0.01741 -0.207523,0.04109 -0.311927,0.05849 -0.01603,0.0027 -0.3048,-0.0071 -0.311928,0 -0.0046,0.0046 0.0046,0.0149 0,0.0195 -0.01177,0.01177 -0.09848,0 -0.116973,0 -0.05252,0 -0.146211,-0.01624 -0.194955,0 -0.02019,0.0067 -0.03914,0.02932 -0.05849,0.03899 -0.01177,0.0059 -0.04948,-0.009 -0.05849,0 -0.0035,0.0035 -0.02421,0.146537 -0.0195,0.155964 0.12206,0.244121 0.05718,0.588788 -0.0195,0.818809 -0.01722,0.05164 -0.01852,0.03802 -0.03899,0.05849 -0.01132,0.01132 -0.0113,0.0616 -0.0195,0.07798 -0.0082,0.01643 -0.03318,0.02156 -0.03899,0.03899 -0.03821,0.114628 -0.06455,0.246068 -0.116974,0.35092 -0.02135,0.04272 -0.0013,0.406767 0.0195,0.448397 0.05653,0.113051 0.239205,0.148889 0.350917,0.116972 0.150043,-0.04287 0.311907,-0.142189 0.448397,-0.21445 0.193183,-0.102274 0.381903,-0.209402 0.584865,-0.292433 0.0704,-0.0288 0.145206,-0.04651 0.21445,-0.07798 0.241937,-0.109971 0.468032,-0.264657 0.701839,-0.389911 0.179324,-0.09606 0.366371,-0.177202 0.545872,-0.272936 0.325033,-0.17335 0.635167,-0.380831 0.974775,-0.526378 0.08398,-0.03599 0.384496,-0.170045 0.448395,-0.233945 0.01074,-0.01074 0.0195,-0.07816 0.0195,-0.09748 0,-0.186949 -0.02837,-0.06737 -0.07798,-0.116972 -0.0326,-0.0326 0.0093,-0.0195 -0.09748,-0.0195 z"
       id="path13334" />
    <path
       style="fill:none;stroke:#000000;stroke-width:0.264583px;stroke-linecap:butt;stroke-linejoin:miter;stroke-opacity:1"
       d="m 58.977683,43.474711 c -0.0078,0.0066 -0.02992,0.01193 -0.02334,0.01971 0.0066,0.0078 0.03353,-0.01971 0.02334,-0.01971 -0.01582,0 -0.167646,0.0093 -0.198808,0.01971 -0.152585,0.05086 -0.314217,0.07087 -0.467889,0.116973 -0.09282,0.02784 -0.171649,0.106886 -0.253442,0.155964 -0.02492,0.01495 -0.05743,0.01844 -0.07798,0.03899 -0.0036,0.0036 -0.0159,0.05489 -0.0195,0.05849 -0.02127,0.02127 -0.06952,0.05002 -0.09748,0.07798 -0.03822,0.03822 -0.122952,0.06748 -0.175458,0.07798 -0.02196,0.0044 -0.05452,0 -0.07798,0 -0.0065,0 -0.02553,0.0024 -0.0195,0 0.06803,-0.02694 0.137742,-0.0494 0.206613,-0.0741"
       id="path13482" />
    <path
       style="fill:none;stroke:#000000;stroke-width:0.264583px;stroke-linecap:butt;stroke-linejoin:miter;stroke-opacity:1"
       d="m 60.773563,46.99655 c -0.661831,-0.30817 -0.188394,0.215152 -0.318077,0.279993 -0.07656,0.03828 -0.359925,-0.03449 -0.467891,0.0195 -0.03706,0.01852 -0.269068,0.155937 -0.136509,0.155974"
       id="path13484" />
    <ellipse
       style="fill:#000000;fill-opacity:1;stroke:none;stroke-width:0.264583;stroke-opacity:0.482353"
       id="path13662-2"
       cx="59.890118"
       cy="47.396305"
       rx="0.1181075"
       ry="0.20557301" />
    <path
       style="fill:none;stroke:#000000;stroke-width:0.264583px;stroke-linecap:butt;stroke-linejoin:miter;stroke-opacity:1"
       d="M 54.684826,48.602235 54.080465,47.296038"
       id="path13601" />
    <path
       style="fill:none;stroke:#000000;stroke-width:0.264583px;stroke-linecap:butt;stroke-linejoin:miter;stroke-opacity:1"
       d="m 55.883111,48.946027 -1.802646,1.898187"
       id="path13603" />
    <path
       style="fill:#000000;stroke:#000000;stroke-width:0.264583px;stroke-linecap:butt;stroke-linejoin:miter;stroke-opacity:1;fill-opacity:1"
       d="m 52.598809,51.779997 c -0.0057,0.0804 -0.06622,0.452435 -0.03899,0.506884 0.05153,0.103068 0.186799,0.08932 0.194956,0.09748 0.0055,0.0054 0.004,0.0895 0,0.09748 -0.01873,0.03746 -0.05925,0.06001 -0.07798,0.09748 -0.01622,0.03244 -0.0065,0.103978 -0.03899,0.136469 -0.003,0.003 -0.0552,0.02278 -0.03899,0.03899 0.03513,0.03513 0.242676,-0.05781 0.272936,-0.07798 0.05041,-0.03361 0.08654,-0.0029 0.136469,-0.0195 0.05104,-0.01701 0.1078,-0.03441 0.155964,-0.05849 0.1099,-0.05495 0.403045,-0.414984 0.448395,-0.467892 0.06142,-0.07165 0.09748,-0.140671 0.09748,-0.233948 0,-0.0065 0.0065,-0.0195 0,-0.0195 -0.0092,0 -0.01127,0.0154 -0.0195,0.0195 -0.06594,0.03297 -0.266483,-0.02275 -0.331425,-0.03899 -0.195792,-0.04895 -0.387408,-0.136469 -0.584864,-0.136469 -0.02365,0 -0.163359,0.01566 -0.175458,0 -0.07589,-0.09817 -0.143524,-0.20247 -0.215284,-0.303705"
       id="path13605" />
    <ellipse
       style="fill:#000000;fill-opacity:1;stroke:none;stroke-width:0.264583;stroke-opacity:0.482353"
       id="path13662"
       cx="53.92337"
       cy="47.190727"
       rx="0.1181075"
       ry="0.20557301" />
    <ellipse
       style="fill:#000000;fill-opacity:1;stroke:none;stroke-width:0.264583;stroke-opacity:0.482353"
       id="path13662-27"
       cx="63.321323"
       cy="44.274239"
       rx="0.1181075"
       ry="0.20557301" />
    <ellipse
       style="fill:#009e73;fill-opacity:1;stroke:none;stroke-width:0.477847;stroke-opacity:0.482353"
       id="path2767-9-4"
       cx="50.211876"
       cy="-70.445412"
       rx="1.8861676"
       ry="1.7278281"
       transform="matrix(-0.1772301,0.98416944,-0.99687259,0.07902562,0,0)" />
    <path
       style="fill:#000000;stroke:#000000;stroke-width:0.264583px;stroke-linecap:butt;stroke-linejoin:miter;stroke-opacity:1;fill-opacity:1"
       d="m 54.637968,39.937724 c 0,0.09449 0.0079,0.0816 -0.02471,0.172945 -0.04676,0.130931 -0.118126,0.25504 -0.172945,0.382947 -0.02609,0.0609 -0.03893,0.124415 -0.06176,0.185296 -0.0052,0.01389 -0.02,0.02297 -0.02471,0.03706 -0.0039,0.01172 0.003,0.02508 0,0.03706 -0.0028,0.0113 -0.02103,0.01365 -0.02471,0.02471 -0.0052,0.01564 0.004,0.03344 0,0.04941 -0.01431,0.05726 -0.04836,0.121436 -0.07412,0.172945 -0.02103,0.04209 -0.02074,0.09234 -0.03706,0.135884 -0.03907,0.104183 -0.014,-0.0049 -0.03706,0.09882 -0.02833,0.127487 -0.03969,0.256693 -0.07412,0.382947 -0.02302,0.08436 -0.05878,0.163976 -0.08647,0.247063 -0.04533,0.135975 -0.05775,0.283086 -0.09883,0.420007 -0.02612,0.08703 -0.04538,0.169291 -0.06177,0.259416 -0.01656,0.09111 -0.03146,0.182013 -0.04941,0.27177 -0.0094,0.04727 -0.06553,0.114062 -0.08647,0.160591 -0.02355,0.0523 -0.04202,0.106744 -0.06177,0.160592 -0.111771,0.304829 -0.04693,0.11643 -0.123532,0.444711 -0.0013,0.0057 -0.05798,0.208198 -0.06176,0.23471 -0.01326,0.09283 -0.01535,0.190616 -0.02471,0.284123 -0.0072,0.07168 0.0056,0.138392 -0.01236,0.210005 -0.02138,0.08555 -0.0406,0.174762 -0.06176,0.259416 -0.0021,0.0089 -0.0094,0.01598 -0.01236,0.02471 -0.0013,0.0039 0.0041,0.01236 0,0.01236 -0.0058,0 -0.0098,-0.01757 -0.01236,-0.01236 -0.02458,0.04914 -0.02803,0.106402 -0.03706,0.160591 -0.02117,0.127069 -0.02471,0.254675 -0.02471,0.382948 0,0.09475 0.0083,0.19128 -0.01236,0.284122 -0.0078,0.03491 -0.105431,0.327787 -0.123531,0.345887 -0.0029,0.0029 0.0041,-0.01236 0,-0.01236 -0.0041,0 0,0.0082 0,0.01236 0,0.02059 0,0.04118 0,0.06177 0,0.02471 0,0.04941 0,0.07412 0,0.08942 -0.01217,0.183931 -0.02471,0.27177 -0.0062,0.04338 -0.0286,0.08122 -0.03706,0.123531 -0.01505,0.07525 0.01262,0.158962 0,0.234712 -0.0067,0.04021 -0.02447,0.110477 -0.03706,0.148238 -0.0066,0.01969 -0.04399,0.06566 -0.03706,0.08647 0.0024,0.0068 0.102121,-0.0024 0.111178,0 0.06501,0.01624 0.08029,0.02162 0.135885,0.04941 0.02283,0.0114 0.150291,0.01236 0.185298,0.01236 0.02349,0 0.08863,-0.01127 0.111178,0 0.01466,0.0073 0.03029,0.01794 0.03706,0.02471 0.0029,0.0029 -0.0041,0.01236 0,0.01236 0.06268,0 0.177594,-0.156739 0.234709,-0.185296 0.0074,-0.0037 0.01733,0.0037 0.02471,0 0.03852,-0.01926 0.0793,-0.03836 0.123532,-0.04941 0.01198,-0.003 0.02832,0.0087 0.03706,0 0.0029,-0.0029 -0.0029,-0.0094 0,-0.01236 0.02764,-0.02764 0.38214,-0.09285 0.457065,-0.07412 0.04627,0.01156 0.07823,0.04667 0.123531,0.06176 0.02471,0.0082 0.0041,-0.0041 0.01236,-0.01236 0.01455,-0.01455 0.04118,0 0.06177,0 0.07735,0 0.187336,-0.02267 0.247063,0.03706 0.04634,0.04634 0.0078,0.02278 0.03706,0.06176 0.01048,0.01397 0.02925,0.02143 0.03706,0.03706 0.0089,0.01781 0.01611,0.04458 0.02471,0.06177 0.02003,0.04008 0.105965,0.02731 0.135884,0.01236 0.02683,-0.01341 0.02463,0.02482 0.04941,-0.02471 0.01257,-0.02513 0,-0.0993 0,-0.123531 0,-0.04783 0.01617,-0.130175 -0.01236,-0.172945 -0.03547,-0.0532 -0.09482,-0.0661 -0.123531,-0.123531 -0.01889,-0.03776 -0.02983,-0.103955 -0.06177,-0.135885 -0.01595,-0.01595 -0.06606,-0.0623 -0.07412,-0.08647 -0.0024,-0.0071 -0.0096,-0.07412 -0.02471,-0.07412 -0.0082,0 0,0.03294 0,0.02471 0,-0.113006 -0.01519,-0.224237 -0.03706,-0.333533 -0.0098,-0.04884 0.02193,-0.129067 0,-0.172945 -0.02641,-0.0528 -0.07412,-0.200901 -0.07412,-0.259416 0,-0.01386 0.0019,-0.113147 -0.01236,-0.09883 -0.0053,0.0053 0.007,0.03003 0.01236,0.02471 0.0058,-0.0058 -0.0013,-0.01659 0,-0.02471 0.0046,-0.02735 0.02013,-0.05912 0.02471,-0.08647 0.01154,-0.06915 0.03404,-0.125187 0.07412,-0.185295 0.02495,-0.03743 0.06544,-0.04908 0.09882,-0.07412 0.08886,-0.06664 -0.02606,0.01371 0.03706,-0.04941 0.0105,-0.0105 0.02656,-0.01421 0.03706,-0.02471 0.01458,-0.01458 0.02387,-0.03622 0.03706,-0.04941 0.03016,-0.03016 0.08129,-0.04423 0.111181,-0.07412 0.01513,-0.01513 0.01733,-0.03627 0.03706,-0.04941 0.05891,-0.03927 0.125701,-0.07619 0.197652,-0.08647 0.04684,-0.0067 0.138517,-0.01169 0.185296,0 0.01029,0.0026 0.0426,0.03706 0.04941,0.03706 0.03294,0 -0.03706,-0.02882 0.01236,-0.01236 0.01572,0.0052 0.181145,0.06996 0.185296,0.07412 0.0062,0.0062 0.0062,0.01852 0.01236,0.02471 0.0058,0.0058 0.01889,-0.0058 0.02471,0 0.0029,0.0029 -0.0029,0.0094 0,0.01236 0.0058,0.0058 0.02471,0.0082 0.02471,0 0,-0.0058 -0.01646,-0.0082 -0.01236,-0.01236 0.01484,-0.01484 0.0414,0.0072 0.06177,0.01236 0.008,0.0021 0.01733,-0.0037 0.02471,0 0.0182,0.0091 0.01638,0.01638 0.02471,0.02471 0.0041,0.0041 0.03294,0.0082 0.03706,0.01236 0.0029,0.0029 -0.0029,0.0094 0,0.01236 0.0071,0.0071 0.113186,0.0052 0.123532,0 0.0099,-0.0049 0.04598,-0.03911 0.04941,-0.04941 0.0069,-0.02053 0,-0.06602 0,-0.08647 0,-0.10551 -0.0127,-0.220951 0.01236,-0.32118 0.003,-0.01199 -0.0087,-0.02832 0,-0.03706 0.01953,-0.01953 0.05113,-0.02175 0.07412,-0.03706 0.01426,-0.0095 0.02281,-0.02756 0.03706,-0.03706 0.0285,-0.019 0.05414,-0.02786 0.08647,-0.04941 0.01082,-0.0072 0.02785,-0.0031 0.03706,-0.01236 0.0083,-0.0083 0.0065,-0.01561 0.02471,-0.02471 0.01984,-0.0099 0.04002,-0.02035 0.06176,-0.02471 0.02019,-0.004 0.04721,0.01455 0.06177,0 0.0029,-0.0029 0,-0.0082 0,-0.01236 0.03294,-0.0082 0.06609,-0.01566 0.09882,-0.02471 0.08669,-0.02392 0.172842,-0.04977 0.259416,-0.07412 0.07405,-0.02082 0.147262,-0.04508 0.222356,-0.06177 0.01206,-0.0027 0.02832,0.0087 0.03706,0 0.0058,-0.0058 -0.0058,-0.01889 0,-0.02471 0.0029,-0.0029 0.0087,0.0019 0.01236,0 0.03073,-0.01537 0.05413,-0.06118 0.08647,-0.07412 0.01148,-0.0046 0.02508,0.003 0.03706,0 0.01381,-0.0034 0.154636,-0.07427 0.172945,-0.08647 0.04472,-0.02981 0.07489,-0.08686 0.123531,-0.111178 0.03831,-0.01916 0.08772,-0.03312 0.123531,-0.06177 0.03476,-0.02781 0.06078,-0.076 0.09882,-0.09883 0.04415,-0.02649 0.09269,-0.04172 0.135885,-0.07412 0.0414,-0.03105 0.0714,-0.07803 0.111177,-0.111178 0.04302,-0.03585 0.245735,-0.108522 0.259416,-0.135885 0.0071,-0.01429 0.0089,-0.320643 0.01236,-0.358241 0.0081,-0.08902 0.02471,-0.169645 0.02471,-0.259418 0,-0.01476 0.0061,-0.04936 0.01236,-0.06177 0.01318,-0.02635 0.01564,0.02223 0.01236,0.01236 -0.05021,-0.150622 -0.04834,-0.385648 -0.03706,-0.543538 0.0048,-0.06721 0.0798,-0.272765 0.04941,-0.333534 -0.0026,-0.0052 -0.0097,-0.0071 -0.01236,-0.01236 -0.0037,-0.0074 0.0058,-0.01889 0,-0.02471 -0.0041,-0.0041 -0.01236,0.01818 -0.01236,0.01236 0,-0.05723 0.0026,0.0036 -0.02471,-0.09883 -0.02598,-0.09743 -0.05144,-0.198189 -0.07412,-0.296474 -0.02072,-0.0898 -0.04202,-0.173826 -0.07412,-0.259416 -0.01188,-0.03166 -0.0098,-0.05661 -0.02471,-0.08647 -0.03245,-0.06489 -0.07356,-0.122597 -0.111178,-0.185295 -0.02458,-0.04096 -0.02835,-0.07998 -0.03706,-0.123532 -0.0036,-0.01804 -0.01889,-0.03194 -0.02471,-0.04941 -0.0013,-0.0039 0.0041,-0.01236 0,-0.01236 -0.0041,0 -0.0041,0.01236 0,0.01236 0.0041,0 0,-0.0082 0,-0.01236 0,-0.01648 0,-0.03294 0,-0.04941 0,-0.110511 -0.0065,-0.223261 0,-0.333537 0.0059,-0.100023 0.01741,-0.225202 0.04941,-0.32118 0.01924,-0.05775 0.06177,-0.134689 0.06177,-0.197652 0,-0.03396 -0.02096,-0.06508 -0.02471,-0.09882 -0.0019,-0.01635 -0.004,-0.189331 -0.01236,-0.197652 -0.0074,-0.0074 -0.02733,-0.01011 -0.03706,-0.02471 -0.0083,-0.01246 -0.01714,-0.0542 -0.02471,-0.06177 -0.0041,-0.0041 -0.0068,0.0105 -0.01236,0.01236 -0.0554,0.01847 -0.163724,0.0049 -0.222356,0 -0.09117,-0.0076 -0.215347,-0.08057 -0.308827,-0.04941 -0.02659,0.0089 -0.09139,0.04989 -0.11118,0.06177 -0.13217,0.0793 -0.19889,0.100057 -0.345887,0.03706 -7.94e-4,-2.65e-4 -0.07412,-0.03948 -0.07412,-0.04941 0,-0.0041 0.0094,-0.0029 0.01236,0 0.0029,0.0029 -0.0019,0.0087 0,0.01236 0.0026,0.0052 0.01648,0.0082 0.01236,0.01236 -0.024,0.024 -0.06748,-0.01164 -0.09882,-0.02471 -0.113085,-0.04712 -0.0367,-0.01984 -0.123531,-0.07412 -0.07327,-0.04579 -0.18642,-0.09411 -0.271769,-0.111178 -0.06619,-0.01323 -0.145611,0.0031 -0.210003,0.01236 -0.03456,0.0049 -0.07708,-0.0085 -0.111178,0 -0.113027,0.02826 -0.225922,0.09708 -0.321183,0.160591 -0.03175,0.02117 -0.0275,0.05778 -0.03706,0.08647 -0.0091,0.02726 -0.06288,0.07245 -0.03706,0.111177 0.03433,0.0515 0.09553,0.08881 0.135884,0.135885 0.08093,0.09442 -0.0016,0.0039 0.06176,0.09883 0.0065,0.0097 0.0195,0.01429 0.02471,0.02471 0.0037,0.0074 -0.0026,0.01688 0,0.02471 0.02961,0.08883 -0.01675,0.136729 -0.04941,0.234712 -0.03616,0.108474 -0.06973,0.277075 -0.172942,0.345887 -0.06019,0.04013 -0.118822,0.01363 -0.185298,0.02471 -0.122098,0.02035 -0.290711,0.03776 -0.407655,-0.01236 -0.0522,-0.02238 -0.08698,-0.07438 -0.135884,-0.09883 -0.01209,-0.0061 -0.02402,-0.01818 -0.03706,-0.02471 -0.0075,-0.0037 -0.03135,0.0057 -0.03706,0 -0.0058,-0.0058 0.0026,-0.01691 0,-0.02471 -0.01043,-0.03131 -0.03468,-0.07174 -0.04941,-0.08647 -0.0062,-0.0062 -0.05209,0 -0.06176,0 -0.01527,0 -0.02299,-0.01939 -0.03706,-0.01236 -0.01707,0.0085 -0.02874,0.02471 -0.04941,0.02471 -0.01706,0 -0.08943,-0.003 -0.09882,-0.01236 -0.0035,-0.0035 -0.08869,-0.108958 -0.111178,-0.08647 -0.01201,0.01201 -0.007,0.03331 -0.01236,0.04941 z"
       id="path16511" />
    <text
       xml:space="preserve"
       style="font-style:normal;font-variant:normal;font-weight:normal;font-stretch:normal;font-size:2.9986px;line-height:1.25;font-family:Arial-ItalicMT;-inkscape-font-specification:Arial-ItalicMT;fill:#ffffff;stroke-width:0.264583"
       x="56.519615"
       y="46.968712"
       id="text13492"><tspan
         sodipodi:role="line"
         id="tspan13490"
         style="font-style:normal;font-variant:normal;font-weight:normal;font-stretch:normal;font-family:Arial-ItalicMT;-inkscape-font-specification:Arial-ItalicMT;fill:#ffffff;stroke-width:0.264583"
         x="56.519615"
         y="46.968712">?</tspan></text>
    <path
       style="fill:none;stroke:#000000;stroke-width:0.264583px;stroke-linecap:butt;stroke-linejoin:miter;stroke-opacity:1"
       d="m 54.577519,40.836191 c 0.03142,0.188142 -0.129085,0.224446 -0.185468,0.337211 -0.0067,0.01349 0.0067,0.03709 0,0.05058 -0.0071,0.01421 -0.02869,0.01865 -0.03372,0.03372 -0.01421,0.04265 0.005,0.0902 0,0.134884 -0.0075,0.06795 -0.02127,0.135096 -0.03372,0.202327 -0.06333,0.34199 -0.117954,0.691002 -0.202324,1.028491 -0.07578,0.303136 -0.19866,0.594514 -0.286628,0.893609 -0.04618,0.15702 -0.0612,0.324729 -0.134885,0.472094 -0.03258,0.06516 -0.06406,0.140493 -0.101164,0.202326 -0.07478,0.124635 -0.174487,0.219975 -0.219186,0.354071 -0.0034,0.01029 -0.03029,0.04029 -0.03372,0.05058 -0.03704,0.11111 -0.01151,0.263819 -0.01685,0.370933 -0.0037,0.07323 -0.03979,0.225494 -0.05058,0.286628 -0.07716,0.437251 0.05553,-0.26576 -0.03372,0.26977 -0.0074,0.04469 -0.09123,0.15867 -0.118026,0.185465 -0.01257,0.01257 -0.04627,-2.65e-4 -0.05058,0.01685 -0.0055,0.0218 -0.0028,0.04514 0,0.06744 5.29e-4,0.0049 0.01672,0.11789 0.01685,0.118023 0.004,0.004 0.01124,0 0.01685,0 0.0056,0.0056 0.01246,0.01024 0.01685,0.01685 0.0696,0.104401 0.112559,0.265064 0.168606,0.370929 0.01315,0.02485 0.03664,0.04305 0.05058,0.06744 0.05413,0.09473 0.05782,0.374555 0.151743,0.421513 0.02777,0.01389 0.04925,-0.01323 0.06744,-0.01685 0.02755,-0.0055 0.05764,0.0089 0.0843,0 0.04299,-0.01434 0.07662,-0.04904 0.118026,-0.06744 0.119025,-0.0529 0.256876,-0.116184 0.387791,-0.134885 0.125876,-0.01799 0.266036,-0.03044 0.387792,0 0.0218,0.0055 0.04612,-0.0071 0.06744,0 0.04042,0.01347 0.04959,0.04959 0.06744,0.06744 0.0048,0.0048 0.128855,0.0045 0.134882,0 0.04075,-0.03056 0.103052,-0.09509 0.134884,-0.134884 0.04934,-0.06168 0.123492,-0.292553 0.08431,-0.370933 -0.03026,-0.06051 -0.101907,-0.120997 -0.118026,-0.185465 -0.0096,-0.03817 0.0033,-0.07882 0,-0.118023 -0.01865,-0.223959 -0.05518,-0.492008 0.01685,-0.708144 0.0084,-0.02529 -0.0084,-0.05901 0,-0.0843 0.0099,-0.02967 0.03442,-0.07423 0.05058,-0.101164 0.02668,-0.04446 0.04661,-0.09322 0.06744,-0.134884 0.01685,-0.03372 0.08828,-0.101164 0.05058,-0.101164 -0.0056,0 -0.0056,0.01685 0,0.01685 0.08686,0 0.168286,-0.06738 0.252907,-0.0843 0.01288,-0.0026 0.05363,0.0069 0.06744,0 0.02801,-0.014 0.05096,-0.0226 0.0843,-0.03372 0.02492,-0.0083 0.05892,0.0063 0.0843,0 0.03093,-0.0077 0.06575,-0.02867 0.101164,-0.01685 0.03481,0.01161 0.03903,0.03637 0.06744,0.05058 0.02848,0.01424 0.134009,0.03372 0.168606,0.03372 0.02249,0 0.06744,0.02249 0.06744,0 0,-0.0056 -0.01124,0 -0.01685,0 0,-0.0056 -7.93e-4,-0.01132 0,-0.01685 0.03178,-0.190712 0.127538,-0.348174 0.202327,-0.522677 0.0329,-0.07677 0.02402,-0.103478 0.06744,-0.168606 0.03013,-0.04519 0.0733,-0.08844 0.101163,-0.134884 0.02837,-0.04728 0.02968,-0.08956 0.06744,-0.134885 0.05422,-0.06506 0.12932,-0.111183 0.202327,-0.151744 0.08566,-0.04759 0.531026,-0.113847 0.590118,-0.0843 0.005,0.0026 -0.004,0.01288 0,0.01685 0.02281,0.02281 0.05029,0.02429 0.06744,0.0843 0.0021,0.007 0.01281,0.164552 0.01685,0.168603 0.0084,0.0084 0.23658,0.03346 0.26977,0.01685 0.0071,-0.0035 0.0098,-0.01331 0.01685,-0.01685 0.01005,-0.005 0.02577,0.0079 0.03372,0 0.004,-0.004 -0.0047,-0.01373 0,-0.01685 0.01929,-0.01286 0.05106,-5.29e-4 0.06744,-0.01685 0.01135,-0.01135 0.0089,-0.0213 0.03372,-0.03372 0.01005,-0.005 0.02577,0.0079 0.03372,0 0.004,-0.004 -0.004,-0.01288 0,-0.01685 0.01664,-0.01664 0.121039,-0.107789 0.151747,-0.118023 0.05264,-0.01754 0.09905,-0.03231 0.151744,-0.06744 0.01984,-0.01323 0.03074,-0.03736 0.05058,-0.05058 0.0164,-0.01093 0.0354,-0.01095 0.05058,-0.03372 0.007,-0.01045 0.008,-0.02484 0.01685,-0.03372 0.05212,-0.05212 0.108815,-0.08735 0.151747,-0.151744 0.02424,-0.03635 0.06435,-0.06126 0.0843,-0.101163 0.0074,-0.01474 -0.0036,-0.05321 0,-0.06744 0.0086,-0.03448 0.01971,-0.06849 0.03372,-0.101163 0.008,-0.01863 0.02466,-0.03246 0.03372,-0.05058 0.02902,-0.05804 0.0383,-0.127187 0.06744,-0.185465 0.03858,-0.07717 -0.007,0.07155 0.03372,-0.05058 0.02593,-0.07777 -0.01593,-0.181686 -0.03372,-0.252907 -0.01561,-0.06248 0.02029,-0.141441 0,-0.202327 -0.02482,-0.07442 -0.01685,0.06126 -0.01685,-0.05058 0,-0.09738 -0.01378,-0.207031 0,-0.30349 0.0053,-0.03735 0.01836,-0.121008 0.03372,-0.151744 0.0026,-0.005 0.01289,0.004 0.01685,0 0.01741,-0.01741 0.0258,-0.108093 0.01685,-0.134885 -0.01794,-0.05382 -0.08213,-0.09465 -0.101161,-0.151746 -0.01588,-0.04762 -0.06742,-0.08424 -0.0843,-0.134882 -0.01892,-0.05674 -0.02865,-0.110117 -0.05058,-0.168606 -0.02625,-0.06999 -0.07191,-0.144844 -0.0843,-0.219186 -0.0087,-0.05188 -0.02069,-0.08276 -0.03372,-0.134885 -0.0085,-0.03383 0.01431,-0.272312 0,-0.286631 -0.004,-0.004 -0.01289,0.004 -0.01685,0 -0.0079,-0.0079 0.005,-0.02365 0,-0.03372 -0.08353,-0.167058 -0.05262,-0.180237 -0.06744,-0.387792 -0.02162,-0.30281 -0.01685,0.05019 -0.01685,-0.219186 0,-0.0446 -0.01077,-0.108646 0,-0.151744 0.0049,-0.01966 0.02619,-0.03177 0.03372,-0.05058 0.08152,-0.203806 -0.0622,0.137779 0.03372,-0.118022 0.01402,-0.03736 0.09541,-0.146384 0.0843,-0.168606 -0.03509,-0.07017 0.0011,0.01802 -0.03372,-0.01685 -0.0084,-0.0084 0.0084,-0.04215 0,-0.05058 -0.004,-0.004 -0.01289,0.004 -0.01685,0 -0.0299,-0.0299 0.04566,-0.02893 -0.03372,-0.05058 -0.04999,-0.01363 -0.102113,-0.01884 -0.151744,-0.03372 -0.0226,-0.0068 -0.03914,-0.029 -0.06744,-0.03372 -0.07818,-0.01304 -0.173289,0 -0.252907,0 -0.06587,0 -0.0019,0.005 -0.06744,-0.01685 -0.106195,-0.0354 -0.283165,0.02133 -0.370932,0.05058 -0.04605,0.01535 -0.02267,-0.0029 -0.05058,-0.01685 -0.01799,-0.009 -0.04946,0.009 -0.06744,0 -0.05731,-0.02865 -0.05006,-0.03323 -0.05313,0.06327"
       id="path16766" />
    <path
       style="fill:none;stroke:#000000;stroke-width:0.264583px;stroke-linecap:butt;stroke-linejoin:miter;stroke-opacity:1"
       d="M 55.589151,41.797239 54.206586,41.139681"
       id="path16768" />
    <path
       style="fill:none;stroke:#000000;stroke-width:0.264583px;stroke-linecap:butt;stroke-linejoin:miter;stroke-opacity:1"
       d="m 54.206586,41.139681 c 0.0056,-0.06182 0.01,-0.123769 0.01685,-0.185468 0.0043,-0.0391 0.0077,0.07945 0,0.118026 -0.02095,0.104801 -0.06744,0.202551 -0.06744,0.303487 0,0.0956 -0.06665,0.164632 -0.0843,0.25291 -0.02233,0.111699 -0.04021,0.228291 -0.06744,0.337209 -0.0058,0.02342 0.01074,0.06282 0,0.0843 -0.02567,0.05131 -0.03372,0.122894 -0.03372,0.185465"
       id="path16883" />
    <path
       style="fill:none;stroke:#000000;stroke-width:0.264583px;stroke-linecap:butt;stroke-linejoin:miter;stroke-opacity:1"
       d="M 55.336241,42.589685 58.337415,39.18386"
       id="path16885" />
    <path
       style="fill:none;stroke:#000000;stroke-width:0.264583px;stroke-linecap:butt;stroke-linejoin:miter;stroke-opacity:1"
       d="m 57.005434,41.898403 -0.101164,0.60698"
       id="path16887" />
  </g>
</svg>
